<svg width="100" height="100" viewBox="0 0 100 100" fill="none" xmlns="http://www.w3.org/2000/svg">
<g filter="url(#filter0_b_785_635)">
<rect width="100" height="100" rx="50" fill="url(#paint0_linear_785_635)"/>
<rect x="0.5" y="0.5" width="99" height="99" rx="49.5" stroke="url(#paint1_linear_785_635)"/>
</g>
<path d="M30.8427 44.3704L47.9793 27.2338C48.2447 26.9676 48.56 26.7563 48.9071 26.6121C49.2543 26.468 49.6265 26.3938 50.0024 26.3938C50.3783 26.3938 50.7505 26.468 51.0977 26.6121C51.4448 26.7563 51.7601 26.9676 52.0255 27.2338L69.162 44.3704C69.6986 44.9069 70 45.6347 70 46.3935C70 47.1523 69.6986 47.88 69.162 48.4165C68.6255 48.9531 67.8978 49.2545 67.139 49.2545C66.3802 49.2545 65.6524 48.9531 65.1159 48.4165L52.8561 36.1567L52.8561 71.1439C52.8561 71.9014 52.5552 72.6278 52.0196 73.1635C51.4839 73.6991 50.7575 74 50 74C49.2425 74 48.5161 73.6991 47.9804 73.1635C47.4448 72.6278 47.1439 71.9014 47.1439 71.1439L47.1439 36.1567L34.8841 48.4189C34.3476 48.9555 33.6199 49.2569 32.8611 49.2569C32.1023 49.2569 31.3745 48.9555 30.838 48.4189C30.3014 47.8824 30 47.1546 30 46.3958C30 45.637 30.3014 44.9093 30.838 44.3728L30.8427 44.3704Z" fill="white"/>
<defs>
<filter id="filter0_b_785_635" x="-20" y="-20" width="140" height="140" filterUnits="userSpaceOnUse" color-interpolation-filters="sRGB">
<feFlood flood-opacity="0" result="BackgroundImageFix"/>
<feGaussianBlur in="BackgroundImageFix" stdDeviation="10"/>
<feComposite in2="SourceAlpha" operator="in" result="effect1_backgroundBlur_785_635"/>
<feBlend mode="normal" in="SourceGraphic" in2="effect1_backgroundBlur_785_635" result="shape"/>
</filter>
<linearGradient id="paint0_linear_785_635" x1="49.9816" y1="1.06399e-06" x2="20.2858" y2="109.852" gradientUnits="userSpaceOnUse">
<stop stop-color="#B4B4B4" stop-opacity="0.66"/>
<stop offset="1" stop-color="#B4B4B4" stop-opacity="0.18"/>
</linearGradient>
<linearGradient id="paint1_linear_785_635" x1="43.2025" y1="91.6667" x2="50.4885" y2="30.816" gradientUnits="userSpaceOnUse">
<stop stop-color="#B4B4B4" stop-opacity="0"/>
<stop offset="0.300066" stop-color="#1D54AC" stop-opacity="0.1"/>
<stop offset="1" stop-color="white"/>
</linearGradient>
</defs>
</svg>
