<svg width="1989" height="1289" viewBox="0 0 1989 1289" fill="none" xmlns="http://www.w3.org/2000/svg">
<mask id="mask0_701_176" style="mask-type:alpha" maskUnits="userSpaceOnUse" x="4" y="0" width="1981" height="1289">
<rect x="4" width="1981" height="1289" fill="#D9D9D9"/>
</mask>
<g mask="url(#mask0_701_176)">
<g filter="url(#filter0_d_701_176)">
<path d="M35.0657 665.006C-375.127 809.802 -392.942 1072.75 -345.722 1201.11V1275H2299V0H1981.24C1987.96 2.87648 1997.36 31.7132 1981.24 124.048C1961.1 239.467 1692.15 588.53 1051.87 630.822C733.858 651.828 544.303 485.248 35.0657 665.006Z" fill="url(#paint0_linear_701_176)" shape-rendering="crispEdges"/>
<path d="M35.0657 665.006C-375.127 809.802 -392.942 1072.75 -345.722 1201.11V1275H2299V0H1981.24C1987.96 2.87648 1997.36 31.7132 1981.24 124.048C1961.1 239.467 1692.15 588.53 1051.87 630.822C733.858 651.828 544.303 485.248 35.0657 665.006Z" stroke="url(#paint1_linear_701_176)" shape-rendering="crispEdges"/>
</g>
</g>
<defs>
<filter id="filter0_d_701_176" x="-368.5" y="-0.5" width="2672" height="1284" filterUnits="userSpaceOnUse" color-interpolation-filters="sRGB">
<feFlood flood-opacity="0" result="BackgroundImageFix"/>
<feColorMatrix in="SourceAlpha" type="matrix" values="0 0 0 0 0 0 0 0 0 0 0 0 0 0 0 0 0 0 127 0" result="hardAlpha"/>
<feOffset dy="4"/>
<feGaussianBlur stdDeviation="2"/>
<feComposite in2="hardAlpha" operator="out"/>
<feColorMatrix type="matrix" values="0 0 0 0 0 0 0 0 0 0 0 0 0 0 0 0 0 0 0.25 0"/>
<feBlend mode="normal" in2="BackgroundImageFix" result="effect1_dropShadow_701_176"/>
<feBlend mode="normal" in="SourceGraphic" in2="effect1_dropShadow_701_176" result="shape"/>
</filter>
<linearGradient id="paint0_linear_701_176" x1="967.01" y1="6.02077e-08" x2="967.092" y2="1032.3" gradientUnits="userSpaceOnUse">
<stop stop-color="#B4B4B4" stop-opacity="0.4"/>
<stop offset="1" stop-color="#B4B4B4" stop-opacity="0"/>
</linearGradient>
<linearGradient id="paint1_linear_701_176" x1="786.483" y1="1168.75" x2="831.45" y2="384.359" gradientUnits="userSpaceOnUse">
<stop stop-color="#B4B4B4" stop-opacity="0"/>
<stop offset="0.300066" stop-color="#1D54AC" stop-opacity="0.1"/>
<stop offset="1" stop-color="white"/>
</linearGradient>
</defs>
</svg>
