<svg width="213" height="42" viewBox="0 0 213 42" fill="none" xmlns="http://www.w3.org/2000/svg">
<g clip-path="url(#clip0_1_2539)">
<path d="M83.518 0.650894C82.1513 1.3229 81.4154 2.0579 80.7215 3.4019C80.1748 4.4939 73.8037 34.2509 73.8037 35.7629C73.8037 36.3719 73.9509 37.3169 74.1401 37.8629C74.5396 39.0599 76.0746 40.8029 77.2521 41.4329L78.1142 41.8949L109.759 41.9579C145.273 42.0209 142.498 42.1259 144.432 40.4039C145 39.8999 145.652 39.0809 145.883 38.5979C146.114 38.0939 147.754 30.9749 149.521 22.7849C153.137 6.0059 153.179 5.5859 152.17 3.5279C151.834 2.8559 151.161 1.9529 150.635 1.49089C148.806 -0.105103 151.392 -0.000102997 116.278 -0.000102997H84.8007L83.518 0.650894ZM147.25 3.8639C148.175 4.2629 148.869 5.06089 148.995 5.90089C149.121 6.78289 142.96 35.8889 142.414 36.9389C142.161 37.4009 141.741 37.7999 141.152 38.0519C140.311 38.4299 139.049 38.4299 109.822 38.3879C80.322 38.3249 79.3547 38.3039 78.787 37.9259C78.0511 37.4219 77.5885 36.5609 77.5885 35.6579C77.5885 34.8389 83.8124 5.6069 84.0857 5.06089C84.3801 4.5149 85.074 3.98989 85.7048 3.7799C86.0412 3.6959 99.8768 3.5909 116.446 3.5909C141.531 3.5699 146.682 3.6119 147.25 3.8639Z" fill="#ECC115"/>
<path d="M10.6609 6.11112C7.14944 6.61512 4.31085 9.30312 3.55389 12.8101C3.42773 13.4191 3.36465 14.7421 3.4067 15.7501C3.55389 18.8581 4.71035 20.6221 8.17975 23.1001C11.502 25.4311 12.343 26.7331 11.7963 28.7281C11.3758 30.3451 10.4086 31.0801 8.72644 31.0801C6.72891 31.0801 5.97195 30.1981 6.14016 28.0561L6.26632 26.6701H3.36465H0.483995L0.336808 27.3211C0.105515 28.5391 0.210648 30.9961 0.547075 31.9831C1.21993 33.9361 3.25951 35.4271 6.07709 36.0361C9.90394 36.8341 13.7098 35.9101 15.7914 33.6421C18.1464 31.1011 18.9454 26.3971 17.5576 23.3521C16.7586 21.6301 15.7493 20.5381 13.4785 18.9211C10.2614 16.6321 9.27314 15.2671 9.65162 13.6081C9.90394 12.5581 10.2614 11.9911 10.9973 11.5501C12.2799 10.7731 14.2985 11.2141 14.9503 12.4111C15.0975 12.7051 15.1396 13.3141 15.0765 14.0071L14.9503 15.1201H17.873C21.1953 15.1201 21.027 15.2461 21.027 12.8941C21.027 9.11412 18.651 6.65712 14.4457 6.09012C12.6164 5.85912 12.4061 5.85912 10.6609 6.11112Z" fill="#ECECEC"/>
<path d="M25.6525 8.54689C25.4002 9.80689 23.9704 16.4429 22.4985 23.3099L19.8281 35.8049L22.877 35.8679C24.6643 35.8889 25.9889 35.8469 26.052 35.7209C26.1151 35.6159 26.6828 33.0749 27.3136 30.0719L28.4491 24.6329L31.6241 24.5069C35.0304 24.3809 36.4602 24.0869 37.9531 23.2259C39.6773 22.1969 40.7076 20.3069 41.5487 16.5479C42.4949 12.4529 42.1164 10.1639 40.224 8.35789C38.4998 6.69889 36.6495 6.29989 30.4676 6.29989H26.1361L25.6525 8.54689ZM35.1986 12.2009C35.6402 12.5579 35.7453 12.8099 35.7453 13.6079C35.7453 14.7839 35.2407 16.9889 34.7991 17.8499C34.3365 18.7529 33.3903 19.1519 31.3718 19.2779L29.5845 19.3829L29.6896 18.8789C29.7527 18.6059 30.1102 16.8839 30.5097 15.0569L31.2035 11.7599H32.9277C34.3365 11.7599 34.736 11.8439 35.1986 12.2009Z" fill="#ECECEC"/>
<path d="M43.8829 20.8322C42.1798 28.8332 40.792 35.5112 40.792 35.6372C40.792 35.8472 41.549 35.9102 43.8198 35.9102C46.5323 35.9102 46.8687 35.8682 46.9738 35.5322C47.079 35.1752 53.1977 6.53116 53.1977 6.38416C53.1977 6.34216 51.7889 6.30016 50.0858 6.30016H46.9738L43.8829 20.8322Z" fill="#ECECEC"/>
<path d="M57.5296 6.65716C57.4034 7.05616 51.3057 35.6582 51.3057 35.8262C51.3057 35.8892 52.5673 35.8892 54.1022 35.8682L56.8777 35.8052L58.9804 25.9982C60.1369 20.5802 61.1251 16.1702 61.1882 16.1702C61.2513 16.1702 61.84 20.3912 62.5339 25.5572C63.2067 30.7442 63.7955 35.1752 63.8586 35.4272C63.9637 35.9102 64.0268 35.9102 66.9495 35.9102H69.9143L73.0262 21.2522C74.7294 13.2092 76.1381 6.55216 76.1171 6.44716C76.1171 6.36316 74.8976 6.30016 73.4047 6.30016C70.9866 6.30016 70.6712 6.34216 70.5661 6.65716C70.503 6.86716 69.725 10.4162 68.8419 14.5322C67.9377 18.6692 67.1598 22.0502 67.0757 22.0502C67.0126 22.0502 66.4869 18.5012 65.9192 14.1752L64.8679 6.30016H61.2513C57.9921 6.30016 57.6347 6.34216 57.5296 6.65716Z" fill="#ECECEC"/>
<path d="M87.156 6.55216C87.0509 6.90916 80.9531 35.6372 80.9531 35.8052C80.9531 35.8892 83.8127 35.9102 87.3242 35.8472C93.9896 35.7632 94.7676 35.6582 96.618 34.6922C97.0806 34.4612 97.7744 33.9992 98.1319 33.6632C99.814 32.2142 101.181 28.6022 101.202 25.5992C101.223 23.5412 100.487 21.9032 99.2463 21.1472L98.4263 20.6642L99.3094 20.2232C101.349 19.2362 102.358 17.8922 103.031 15.2252C103.494 13.3772 103.578 11.4662 103.199 10.2692C102.632 8.31616 100.529 6.86716 97.7744 6.51016C95.3354 6.19516 87.2611 6.23716 87.156 6.55216ZM96.1764 11.9912C96.9754 12.3692 97.2278 13.1882 96.9334 14.5742C96.4498 16.9262 95.2933 17.8712 92.707 18.0182C91.3403 18.1022 91.0459 18.0602 91.0459 17.8082C91.0459 17.5352 91.4875 15.4562 92.2024 12.2222C92.3075 11.7812 92.4337 11.7602 93.9896 11.7602C94.8938 11.7602 95.882 11.8652 96.1764 11.9912ZM93.464 23.5202C94.7887 23.8142 95.1041 24.3812 94.9779 26.1872C94.7887 28.6022 93.8004 30.0302 91.9711 30.4502C91.1511 30.6392 88.3125 30.7442 88.3125 30.5762C88.3125 30.5342 88.6489 28.9172 89.0484 27.0062C89.4479 25.0742 89.7843 23.4572 89.7843 23.4152C89.7843 23.2262 92.6019 23.3102 93.464 23.5202Z" fill="#ECECEC"/>
<path d="M108.918 6.46816C108.918 6.55216 107.551 13.0622 105.869 20.9162C104.187 28.7492 102.82 35.3432 102.82 35.5322C102.82 35.8892 103.346 35.9102 110.874 35.9102H118.927L119.41 33.5582C119.684 32.2562 119.936 31.0802 119.999 30.9332C120.083 30.7232 119.053 30.6602 115.079 30.6182L110.053 30.5552L110.789 27.0272L111.525 23.5202H115.457C119.032 23.5202 119.41 23.4782 119.515 23.1422C119.705 22.5122 120.483 18.8162 120.483 18.5432C120.483 18.3332 119.642 18.2702 116.572 18.2702C112.934 18.2702 112.661 18.2492 112.745 17.8922C112.808 17.7032 113.123 16.2332 113.439 14.6372L114.049 11.7602H119.053H124.057L124.162 11.2772C124.667 9.09316 125.109 6.88816 125.109 6.61516C125.109 6.34216 124.099 6.30016 117.013 6.30016C112.556 6.30016 108.918 6.38416 108.918 6.46816Z" fill="#ECECEC"/>
<path d="M127.211 6.36316C127.211 6.40516 126.98 7.51816 126.686 8.82016C126.391 10.1222 126.16 11.3192 126.16 11.4662C126.16 11.6762 126.833 11.7602 129.167 11.8022L132.153 11.8652L129.714 23.3522C128.368 29.6732 127.19 35.0912 127.127 35.3852L127.001 35.9102H130.134H133.267L133.583 34.4822C133.751 33.7052 134.928 28.2872 136.169 22.4072L138.44 11.7602H141.51H144.58L145.042 9.49216C145.294 8.25316 145.568 7.03516 145.631 6.76216L145.757 6.30016H136.484C131.396 6.30016 127.211 6.34216 127.211 6.36316Z" fill="#ECECEC"/>
<path d="M155.724 6.84616C155.514 7.68616 154.757 11.3612 154.757 11.5712C154.757 11.6762 156.103 11.7812 157.764 11.8022L160.77 11.8652L158.331 23.3102C156.986 29.6312 155.808 35.0282 155.724 35.3432L155.598 35.9102H158.731H161.864L162.074 35.0282C162.2 34.5242 163.357 29.0852 164.66 22.9322L167.036 11.7602H170.127H173.197L173.66 9.49216C173.912 8.25316 174.164 7.03516 174.228 6.76216L174.354 6.30016H165.102H155.85L155.724 6.84616Z" fill="#ECECEC"/>
<path d="M174.248 20.8322C172.545 28.8332 171.157 35.5112 171.157 35.6372C171.157 35.8472 172.902 35.9102 179.21 35.9102H187.285L187.768 33.5372C188.042 32.2562 188.294 31.0592 188.357 30.9122C188.42 30.7232 187.369 30.6602 183.479 30.6602C179.652 30.6602 178.517 30.5972 178.517 30.3872C178.517 30.2612 178.832 28.6442 179.189 26.8382L179.883 23.5202L183.857 23.4782L187.852 23.4152L188.336 21.2102C188.588 19.9922 188.82 18.8372 188.82 18.6272C188.82 18.2912 188.504 18.2702 184.909 18.2702H180.998L181.124 17.7872C181.187 17.5352 181.502 16.0652 181.818 14.5322L182.406 11.7602H187.39C191.953 11.7602 192.373 11.7392 192.478 11.3822C192.689 10.6472 193.445 6.93016 193.445 6.61516C193.445 6.34216 192.457 6.30016 185.392 6.30016H177.339L174.248 20.8322Z" fill="#ECECEC"/>
<path d="M193.803 20.9582C192.1 29.0012 190.691 35.6582 190.712 35.7632C190.712 35.8472 192.1 35.8892 193.803 35.8682L196.894 35.8052L197.798 31.5002C198.282 29.1272 198.849 26.5022 199.039 25.6622L199.354 24.1502H200.784C202.424 24.1502 203.454 24.4442 203.749 24.9902C204.085 25.6202 204.001 26.6282 203.328 29.9252C202.992 31.6262 202.697 33.6842 202.697 34.4822V35.9102H205.704H208.69L208.711 34.6922C208.732 34.0412 209.047 32.1302 209.405 30.4502C210.582 25.2002 210.309 23.0582 208.311 21.8402L207.723 21.4832L208.879 20.9162C211.318 19.7192 212.559 17.3672 212.748 13.6082C212.895 10.3742 212.054 8.65216 209.699 7.39216C208.017 6.51016 206.482 6.30016 201.331 6.30016H196.915L193.803 20.9582ZM205.914 12.1802C206.65 12.7682 206.734 13.3772 206.377 15.1412C205.809 17.7662 204.8 18.6272 201.961 18.8372L200.447 18.9632L201.162 15.6242C201.562 13.7762 201.919 12.1592 201.961 12.0122C202.024 11.8442 202.571 11.7602 203.707 11.7602C205.052 11.7602 205.473 11.8442 205.914 12.1802Z" fill="#ECECEC"/>
</g>
<defs>
<clipPath id="clip0_1_2539">
<rect width="213" height="42" fill="white"/>
</clipPath>
</defs>
</svg>
