<svg width="211" height="70" viewBox="0 0 211 70" fill="none" xmlns="http://www.w3.org/2000/svg">
<g clip-path="url(#clip0_1_408)">
<path d="M13.1425 45.9129C9.14465 45.9129 5.95478 45.0202 3.57286 43.2348C1.19095 41.4494 -0.00525406 38.9195 -0.0157471 35.6449C-0.00382218 34.5498 0.128128 33.4592 0.377741 32.3927L0.503657 31.6927H9.05808L8.73936 33.2225C8.65279 34.009 8.61344 34.4337 8.61344 34.5635C8.58652 35.0854 8.67559 35.6068 8.87425 36.0903C9.07291 36.5737 9.37623 37.0072 9.76243 37.3596C10.5258 38.0386 11.6105 38.3794 13.0166 38.382C14.5905 38.382 15.813 37.914 16.6839 36.9781C17.5548 36.0421 17.9903 34.7024 17.9903 32.959C17.9929 31.6515 17.5298 30.3857 16.6839 29.3882C15.8103 28.3395 14.2679 27.0863 12.0565 25.6287C7.25329 22.4878 4.85039 18.664 4.84776 14.1573C4.84776 9.90487 6.10299 6.48221 8.61344 3.88933C11.0819 1.29644 14.4423 0 18.6946 0C22.6059 0 25.721 0.892696 28.0399 2.67809C30.3589 4.46348 31.5184 6.99345 31.5184 10.268C31.5071 11.384 31.3752 12.4955 31.1249 13.5831H22.5232L22.7121 12.7966C22.8363 12.2814 22.901 11.7536 22.9049 11.2236C22.9366 10.7015 22.8432 10.1793 22.6324 9.70057C22.4216 9.22179 22.0995 8.80019 21.693 8.47079C20.8125 7.8072 19.7296 7.4682 18.6277 7.51124C18.0005 7.48376 17.3749 7.5954 16.796 7.83813C16.217 8.08087 15.699 8.44868 15.2791 8.91517C14.4296 9.9065 13.9855 11.1817 14.0357 12.486C14.0469 13.7935 14.5352 15.052 15.409 16.0253C16.3219 17.1107 17.9063 18.3757 20.1623 19.8202C24.8842 22.8405 27.2451 26.6419 27.2451 31.2247C27.2451 35.7315 26.0004 39.3036 23.5109 41.941C21.0214 44.5785 17.5653 45.9024 13.1425 45.9129Z" fill="white"/>
<path d="M39.1756 45.276H30.0507L39.5573 0.637207H51.9994C55.5723 0.637207 58.3897 1.5299 60.4515 3.3153C62.5134 5.10069 63.5457 7.5035 63.5483 10.5237C63.5388 11.6398 63.4069 12.7515 63.1548 13.8389L62.5921 16.517C61.6556 20.8926 60.1026 23.9076 57.9332 25.5619C55.8058 27.1795 52.3391 27.987 47.5333 27.9844H42.8115L39.1756 45.276ZM47.0218 8.41586L44.4681 20.2136H48.3833C49.9966 20.2136 51.1875 19.8741 51.9561 19.1951C52.7247 18.516 53.2979 17.2825 53.6757 15.4945L54.2502 12.8164C54.3203 12.3949 54.3637 11.9693 54.38 11.5423C54.38 9.45799 53.1891 8.41586 50.8071 8.41586H47.0218Z" fill="white"/>
<path d="M70.8829 45.276H61.7618L71.2685 0.637207H80.3935L70.8829 45.276Z" fill="white"/>
<path d="M86.0047 45.276H77.8949L87.4094 0.637207H98.191L101.638 26.4625L107.253 0.637207H115.355L105.833 45.276H97.046L92.8474 13.5204L86.0047 45.276Z" fill="white"/>
<path d="M127.474 45.276H112.868L122.359 0.637207H135.183C138.923 0.637207 141.795 1.39226 143.796 2.90237C145.798 4.41249 146.802 6.59114 146.81 9.43833C146.811 10.4457 146.705 11.4503 146.492 12.435L146.299 13.3277C145.792 15.7501 144.932 17.6627 143.717 19.0653C142.379 20.5483 140.639 21.6122 138.708 22.1288V22.3175C140.159 22.7145 141.403 23.6499 142.187 24.9327C143.054 26.3981 143.485 28.0801 143.43 29.7816C143.402 30.7234 143.295 31.6613 143.112 32.5855L142.919 33.4782C142.027 37.6861 140.378 40.7011 137.973 42.5232C135.567 44.3453 132.068 45.2629 127.474 45.276ZM126.007 26.2069L123.646 37.4973H128.305C131.321 37.4973 133.193 35.9662 133.92 32.9041L134.175 31.6928C134.356 30.9624 134.442 30.2116 134.431 29.4591C134.431 28.2793 134.057 27.4299 133.314 26.9423C132.57 26.4546 131.323 26.2069 129.579 26.2069H126.007ZM129.835 8.41586L127.667 18.4282H130.728C134.215 18.4282 136.32 16.9194 137.044 13.9018L137.237 13.0091C137.356 12.4425 137.421 11.8657 137.43 11.2866C137.43 9.37541 136.195 8.41848 133.727 8.41586H129.835Z" fill="#FFCF00"/>
<path d="M170.29 45.276H145.968L155.487 0.637207H179.808L178.14 8.41586H162.955L160.72 18.7468H172.781L171.12 26.5293H159.06L156.766 37.4973H171.938L170.29 45.276Z" fill="#FFCF00"/>
<path d="M192.176 45.276H183.051L190.901 8.41586H181.583L183.243 0.637207H211L209.34 8.41586H200.026L192.176 45.276Z" fill="#FFCF00"/>
<path d="M94.9368 69.7209H92.6074L96.7823 50.0776H101.244C102.95 50.0776 104.171 50.5404 104.908 51.4658C105.645 52.3913 105.838 53.7153 105.486 55.4378L105.262 56.5035C104.868 58.2417 104.27 59.4765 103.409 60.208C102.547 60.9394 101.292 61.3012 99.5878 61.3012H96.7272L94.9368 69.7209ZM98.671 52.099L97.1758 59.3113H99.8121C100.788 59.3113 101.509 59.0964 101.976 58.6664C102.445 58.2338 102.763 57.4866 102.988 56.3934L103.239 55.1861C103.667 53.128 102.88 52.099 100.878 52.099H98.671Z" fill="white"/>
<path d="M114.001 50.0776L114.056 69.7209H111.837L111.865 65.5406H106.56L104.821 69.7209H102.574L110.948 50.0776H114.001ZM111.924 52.6338L107.375 63.5743H111.865L111.924 52.6338Z" fill="white"/>
<path d="M118.519 69.7209H116.189L120.392 50.0776H124.854C126.556 50.0776 127.779 50.5364 128.521 51.454C129.263 52.3716 129.448 53.7035 129.076 55.4495L128.989 55.7563C128.815 56.8116 128.387 57.8089 127.742 58.6625C127.124 59.345 126.291 59.7959 125.381 59.9406V59.9956C127.086 60.4098 127.685 61.84 127.179 64.2861L126.534 67.2906C126.298 68.0818 126.212 68.9099 126.278 69.7327H124.035C123.987 68.847 124.062 67.9588 124.26 67.0939L124.932 63.9793C125.176 62.8389 125.125 62.0524 124.779 61.6198C124.433 61.1872 123.697 60.9748 122.575 60.9748H120.392L118.519 69.7209ZM122.253 52.099L120.82 58.9456H122.871C124.948 58.9456 126.202 57.9441 126.632 55.9411L126.801 55.1546C127.271 53.1149 126.484 52.0951 124.441 52.0951L122.253 52.099Z" fill="white"/>
<path d="M134.128 69.7209H131.803L135.564 52.099H131.574L132.023 50.0776H142.297L141.848 52.099H137.89L134.128 69.7209Z" fill="white"/>
<path d="M142.352 69.7209H140.247L144.434 50.0776H147.322L149.624 64.5574L152.713 50.0776H154.818L150.635 69.7209H148.306L145.834 53.5029L142.352 69.7209Z" fill="white"/>
<path d="M162.79 69.7209H153.74L157.922 50.0776H166.992L166.54 52.099H159.788L158.414 58.5956H163.923L163.502 60.5894H157.993L156.478 67.6877H163.215L162.79 69.7209Z" fill="white"/>
<path d="M167.398 69.7209H165.064L169.251 50.0776H173.713C175.418 50.0776 176.639 50.5364 177.376 51.454C178.114 52.3716 178.305 53.7035 177.951 55.4495L177.868 55.7563C177.693 56.812 177.263 57.8093 176.617 58.6625C176.004 59.3418 175.179 59.7926 174.276 59.9406V59.9956C175.976 60.4098 176.574 61.84 176.07 64.2861L175.425 67.2906C175.189 68.0817 175.103 68.9101 175.173 69.7327H172.926C172.882 68.847 172.957 67.9594 173.15 67.0939L173.827 63.9793C174.069 62.8389 174.016 62.0524 173.67 61.6198C173.324 61.1872 172.588 60.9748 171.466 60.9748H169.251L167.398 69.7209ZM171.128 52.099L169.699 58.9456H171.746C173.827 58.9456 175.078 57.9428 175.511 55.9411L175.677 55.1546C176.144 53.1149 175.357 52.0951 173.316 52.0951L171.128 52.099Z" fill="white"/>
<path d="M182.696 70C181.466 70.0619 180.255 69.6779 179.285 68.9186C178.861 68.5542 178.526 68.0981 178.305 67.585C178.085 67.0719 177.983 66.5153 178.01 65.9573C178.011 65.504 178.066 65.0524 178.175 64.6124L178.289 64.109H180.45L180.28 64.8955C180.227 65.1636 180.199 65.4362 180.198 65.7096C180.182 66.0245 180.237 66.3391 180.358 66.6302C180.479 66.9214 180.664 67.1819 180.898 67.3927C181.435 67.8285 182.116 68.0487 182.807 68.0101C183.23 68.0306 183.653 67.9586 184.046 67.799C184.439 67.6394 184.792 67.396 185.081 67.086C185.664 66.4098 185.966 65.5356 185.923 64.6438C185.939 63.9732 185.765 63.3118 185.419 62.7365C184.85 61.9177 184.169 61.1819 183.397 60.55C182.487 59.7915 181.685 58.9131 181.012 57.9388C180.557 57.1249 180.325 56.205 180.339 55.2725C180.304 54.5484 180.413 53.8245 180.659 53.1427C180.906 52.4608 181.285 51.8347 181.776 51.3006C182.741 50.2991 184.053 49.7983 185.711 49.7983C187.111 49.7983 188.22 50.1536 189.036 50.8641C189.447 51.2379 189.77 51.6987 189.981 52.213C190.192 52.7273 190.286 53.2821 190.255 53.8371C190.253 54.3474 190.198 54.8562 190.09 55.3551H187.898C188.001 54.9312 188.058 54.4974 188.068 54.0613C188.087 53.7495 188.038 53.4372 187.924 53.1465C187.809 52.8557 187.633 52.5934 187.406 52.3781C186.889 51.9599 186.234 51.7495 185.569 51.7882C185.167 51.771 184.766 51.84 184.392 51.9906C184.019 52.1412 183.682 52.3699 183.405 52.6613C182.843 53.2923 182.552 54.1184 182.594 54.9618C182.58 55.6409 182.754 56.3106 183.098 56.8967C183.695 57.72 184.393 58.4651 185.175 59.1146C186.085 59.8611 186.871 60.7463 187.505 61.7377C187.957 62.5272 188.19 63.4234 188.178 64.3332C188.178 66.0714 187.691 67.4504 186.718 68.4702C185.745 69.4901 184.404 70 182.696 70Z" fill="white"/>
</g>
<defs>
<clipPath id="clip0_1_408">
<rect width="211" height="70" fill="white"/>
</clipPath>
</defs>
</svg>
