<svg width="312" height="374" viewBox="0 0 312 374" fill="none" xmlns="http://www.w3.org/2000/svg">
<g filter="url(#filter0_b_1_932)">
<path d="M0 9.5924C0 4.29466 4.29467 0 9.59241 0H301.572C306.87 0 311.164 4.29467 311.164 9.59241V373.351C189.647 373.351 121.517 373.351 0 373.351V9.5924Z" fill="url(#paint0_linear_1_932)"/>
</g>
<g filter="url(#filter1_b_1_932)">
<path d="M0 10.1217C0 4.82396 4.29467 0.529297 9.59241 0.529297H301.572C306.87 0.529297 311.164 4.82397 311.164 10.1217V55.1887C189.647 55.1887 121.517 55.1887 0 55.1887V10.1217Z" fill="url(#paint1_linear_1_932)"/>
</g>
<g filter="url(#filter2_b_1_932)">
<path d="M0 133.885H311.164V173.722C189.647 173.722 121.517 173.722 0 173.722V133.885Z" fill="url(#paint2_linear_1_932)"/>
</g>
<g filter="url(#filter3_b_1_932)">
<path d="M0 55.0359H311.164V94.8724C189.647 94.8724 121.517 94.8724 0 94.8724V55.0359Z" fill="url(#paint3_linear_1_932)"/>
</g>
<g filter="url(#filter4_b_1_932)">
<path d="M0 213.264H311.164V253.101C189.647 253.101 121.517 253.101 0 253.101V213.264Z" fill="url(#paint4_linear_1_932)"/>
</g>
<g filter="url(#filter5_b_1_932)">
<path d="M0 292.643H311.164V332.479C189.647 332.479 121.517 332.479 0 332.479V292.643Z" fill="url(#paint5_linear_1_932)"/>
</g>
<g filter="url(#filter6_b_1_932)">
<path d="M0 332.332H311.164V373.609C189.647 373.609 121.517 373.609 0 373.609V332.332Z" fill="url(#paint6_linear_1_932)"/>
</g>
<g filter="url(#filter7_b_1_932)">
<path d="M0 94.4958H311.164V134.332C189.647 134.332 121.517 134.332 0 134.332V94.4958Z" fill="#06317B"/>
</g>
<g filter="url(#filter8_b_1_932)">
<path d="M0 173.575H311.164V213.411C189.647 213.411 121.517 213.411 0 213.411V173.575Z" fill="#06317B"/>
</g>
<g filter="url(#filter9_b_1_932)">
<path d="M0 252.953H311.164V292.79C189.647 292.79 121.517 292.79 0 292.79V252.953Z" fill="#06317B"/>
</g>
<path d="M40.9404 35.7837L40.5065 34.5983H37.9452L37.4689 35.7837H35.5321L38.2416 28.7243H40.2419L42.8984 35.7837H40.9404ZM38.4532 33.2012H40.0196L39.2258 30.9151L38.4532 33.2012ZM45.2159 35.7837H43.3955L44.5914 28.7243H46.4013L47.8301 32.4921L49.3436 28.7243H51.1746L52.233 35.7837H50.402L49.8833 31.7195L48.1794 35.7837H47.4491L45.8192 31.7195L45.2159 35.7837ZM60.8698 32.2593C60.8698 33.3035 60.4993 34.182 59.7585 34.8947C59.0247 35.5932 58.0968 35.9424 56.9749 35.9424C55.853 35.9424 54.9252 35.5932 54.1914 34.8947C53.4505 34.182 53.0801 33.3035 53.0801 32.2593C53.0801 31.7724 53.1718 31.2961 53.3553 30.8305C53.5458 30.3648 53.8245 29.9591 54.1914 29.6133C54.9252 28.9148 55.853 28.5655 56.9749 28.5655C58.0968 28.5655 59.0247 28.9148 59.7585 29.6133C60.1254 29.9591 60.4006 30.3648 60.584 30.8305C60.7745 31.2961 60.8698 31.7724 60.8698 32.2593ZM56.9749 30.3436C56.3963 30.3436 55.9201 30.5306 55.5461 30.9045C55.1721 31.2715 54.9852 31.7336 54.9852 32.291C54.9852 32.8061 55.1721 33.2436 55.5461 33.6034C55.9342 33.9774 56.4105 34.1644 56.9749 34.1644C57.5535 34.1644 58.0263 33.9809 58.3932 33.614C58.7742 33.233 58.9647 32.7814 58.9647 32.2593C58.9647 31.723 58.7742 31.2715 58.3932 30.9045C57.998 30.5306 57.5253 30.3436 56.9749 30.3436ZM62.0383 28.7243H63.8693V32.9049C63.8693 33.3988 63.9892 33.7622 64.2291 33.995C64.469 34.2208 64.7583 34.3337 65.097 34.3337C65.4357 34.3337 65.7179 34.2314 65.9437 34.0268C66.0707 33.9139 66.166 33.7728 66.2295 33.6034C66.3 33.427 66.3389 33.2894 66.3459 33.1907C66.353 33.0848 66.3565 32.9366 66.3565 32.7461V28.7243H68.1875V32.7779C68.1875 33.0883 68.1769 33.3459 68.1557 33.5505C68.1346 33.7481 68.0605 33.9915 67.9335 34.2808C67.8135 34.563 67.6336 34.8241 67.3937 35.064C66.8151 35.6496 66.039 35.9424 65.0653 35.9424C64.0351 35.9424 63.2554 35.6602 62.7262 35.0957C62.2676 34.5948 62.0383 33.8222 62.0383 32.7779V28.7243ZM71.4971 35.7837H69.6661V28.7243H71.4971L74.8733 33.0425V28.7243H76.7043V35.7837H74.8733L71.4971 31.4655V35.7837ZM82.3528 30.2801H80.8499V35.7837H79.0189V30.2801H77.516V28.7243H82.3528V30.2801ZM93.107 32.2593C93.107 33.3035 92.7366 34.182 91.9957 34.8947C91.2619 35.5932 90.3341 35.9424 89.2122 35.9424C88.0903 35.9424 87.1624 35.5932 86.4286 34.8947C85.6878 34.182 85.3173 33.3035 85.3173 32.2593C85.3173 31.7724 85.4091 31.2961 85.5925 30.8305C85.783 30.3648 86.0617 29.9591 86.4286 29.6133C87.1624 28.9148 88.0903 28.5655 89.2122 28.5655C90.3341 28.5655 91.2619 28.9148 91.9957 29.6133C92.3626 29.9591 92.6378 30.3648 92.8213 30.8305C93.0118 31.2961 93.107 31.7724 93.107 32.2593ZM89.2122 30.3436C88.6336 30.3436 88.1573 30.5306 87.7834 30.9045C87.4094 31.2715 87.2224 31.7336 87.2224 32.291C87.2224 32.8061 87.4094 33.2436 87.7834 33.6034C88.1714 33.9774 88.6477 34.1644 89.2122 34.1644C89.7908 34.1644 90.2635 33.9809 90.6304 33.614C91.0114 33.233 91.2019 32.7814 91.2019 32.2593C91.2019 31.723 91.0114 31.2715 90.6304 30.9045C90.2353 30.5306 89.7625 30.3436 89.2122 30.3436ZM98.3186 28.7243V30.2801H96.1066V31.4549H98.1175V33.0107H96.1066V35.7837H94.2756V28.7243H98.3186ZM105.926 28.7243V30.2801H103.714V31.4549H105.725V33.0107H103.714V35.7837H101.883V28.7243H105.926ZM109.581 35.7837H107.02V28.7243H109.422C110.622 28.7243 111.556 29.0489 112.227 29.698C112.883 30.326 113.211 31.1833 113.211 32.2699C113.211 33.2859 112.904 34.1009 112.29 34.7147C111.98 35.0252 111.592 35.2827 111.126 35.4873C110.66 35.6849 110.145 35.7837 109.581 35.7837ZM108.851 30.2801V34.2279H109.221C109.905 34.2279 110.42 34.0585 110.766 33.7198C111.126 33.3741 111.306 32.8908 111.306 32.2699C111.306 31.5854 111.123 31.0704 110.756 30.7246C110.438 30.4283 109.951 30.2801 109.295 30.2801H108.851Z" fill="white"/>
<path d="M74.8382 74.1655C74.6676 74.0098 74.4711 73.9319 74.2486 73.9319C74.0261 73.9319 73.8295 74.0098 73.659 74.1655C73.4661 74.3287 73.3104 74.6031 73.1917 74.9888C73.0731 75.367 73.0137 75.7378 73.0137 76.1012C73.0137 76.435 73.0693 76.7984 73.1806 77.1915C73.2993 77.5771 73.4587 77.859 73.659 78.037C73.8295 78.1927 74.0261 78.2706 74.2486 78.2706C74.4711 78.2706 74.6676 78.1927 74.8382 78.037C75.031 77.8664 75.1868 77.592 75.3054 77.2137C75.4241 76.8281 75.4834 76.4609 75.4834 76.1124C75.4834 75.7638 75.4204 75.393 75.2943 74.9999C75.1756 74.6068 75.0236 74.3287 74.8382 74.1655ZM77.3969 76.0901C77.3969 77.388 77.0298 78.3967 76.2955 79.1161C75.7245 79.6797 75.0421 79.9615 74.2486 79.9615C73.455 79.9615 72.7727 79.6797 72.2016 79.1161C71.4674 78.3967 71.1003 77.388 71.1003 76.0901C71.1003 74.7848 71.4674 73.7724 72.2016 73.053C72.7727 72.4894 73.455 72.2076 74.2486 72.2076C75.0421 72.2076 75.7245 72.4894 76.2955 73.053C77.0298 73.7724 77.3969 74.7848 77.3969 76.0901ZM78.1379 77.5475V76.0679H80.9525V77.5475H78.1379ZM85.2082 79.7947H83.0277L85.1303 77.2916C84.841 77.4473 84.511 77.5252 84.1402 77.5252C83.4653 77.5252 82.8979 77.299 82.4381 76.8466C81.9412 76.3571 81.6927 75.7601 81.6927 75.0555C81.6927 74.299 81.9412 73.6612 82.4381 73.142C83.0462 72.5191 83.8583 72.2076 84.8744 72.2076C85.8756 72.2076 86.6692 72.5005 87.2551 73.0864C87.7446 73.5907 87.9894 74.2026 87.9894 74.922C87.9894 75.7675 87.6148 76.676 86.8658 77.6476L85.2082 79.7947ZM84.8967 73.7317C84.5629 73.7317 84.2774 73.8503 84.0401 74.0877C83.7953 74.3324 83.6729 74.6142 83.6729 74.9331C83.6729 75.2446 83.7916 75.5116 84.0289 75.7341C84.2663 75.9566 84.5555 76.0679 84.8967 76.0679C85.223 76.0679 85.5011 75.964 85.731 75.7564C85.9906 75.5265 86.1204 75.2446 86.1204 74.9109C86.1204 74.5994 86.0017 74.325 85.7644 74.0877C85.5122 73.8503 85.223 73.7317 84.8967 73.7317Z" fill="white"/>
<path d="M233.264 78.1593V79.7947H227.312L229.192 77.8256C229.867 77.121 230.375 76.4943 230.716 75.9455C230.983 75.5302 231.117 75.1445 231.117 74.7885C231.117 74.477 231.042 74.2397 230.894 74.0765C230.761 73.9282 230.579 73.854 230.349 73.854C230.075 73.854 229.86 73.9542 229.704 74.1544C229.541 74.3621 229.452 74.6661 229.437 75.0666H227.445C227.453 74.236 227.727 73.55 228.269 73.0085C228.803 72.4746 229.504 72.2076 230.371 72.2076C231.254 72.2076 231.951 72.4634 232.463 72.9752C232.945 73.4572 233.186 74.0654 233.186 74.7996C233.186 75.5858 232.819 76.32 232.084 77.0024L230.839 78.1593H233.264ZM237.62 74.1655C237.45 74.0098 237.253 73.9319 237.031 73.9319C236.808 73.9319 236.612 74.0098 236.441 74.1655C236.248 74.3287 236.092 74.6031 235.974 74.9888C235.855 75.367 235.796 75.7378 235.796 76.1012C235.796 76.435 235.851 76.7984 235.963 77.1915C236.081 77.5771 236.241 77.859 236.441 78.037C236.612 78.1927 236.808 78.2706 237.031 78.2706C237.253 78.2706 237.45 78.1927 237.62 78.037C237.813 77.8664 237.969 77.592 238.088 77.2137C238.206 76.8281 238.266 76.4609 238.266 76.1124C238.266 75.7638 238.202 75.393 238.076 74.9999C237.958 74.6068 237.806 74.3287 237.62 74.1655ZM240.179 76.0901C240.179 77.388 239.812 78.3967 239.078 79.1161C238.507 79.6797 237.824 79.9615 237.031 79.9615C236.237 79.9615 235.555 79.6797 234.984 79.1161C234.249 78.3967 233.882 77.388 233.882 76.0901C233.882 74.7848 234.249 73.7724 234.984 73.053C235.555 72.4894 236.237 72.2076 237.031 72.2076C237.824 72.2076 238.507 72.4894 239.078 73.053C239.812 73.7724 240.179 74.7848 240.179 76.0901ZM242.744 75.9344C242.092 75.9344 241.576 75.7378 241.198 75.3448C240.887 75.011 240.731 74.6105 240.731 74.1433C240.731 73.6315 240.883 73.2125 241.187 72.8862C241.536 72.4931 242.055 72.2966 242.744 72.2966C243.419 72.2966 243.946 72.4931 244.324 72.8862C244.636 73.2125 244.791 73.6204 244.791 74.1099C244.791 74.5994 244.632 75.011 244.313 75.3448C243.935 75.7378 243.412 75.9344 242.744 75.9344ZM242.711 79.7947L247.005 72.3744H247.973L243.668 79.7947H242.711ZM242.767 73.2755C242.515 73.2755 242.311 73.3608 242.155 73.5314C242.007 73.6946 241.932 73.8874 241.932 74.1099C241.932 74.3621 242.029 74.5734 242.222 74.744C242.37 74.8775 242.552 74.9443 242.767 74.9443C242.989 74.9443 243.186 74.8664 243.356 74.7106C243.52 74.5475 243.601 74.3472 243.601 74.1099C243.601 73.8652 243.512 73.6575 243.334 73.4869C243.186 73.346 242.997 73.2755 242.767 73.2755ZM247.929 77.2248C247.676 77.2248 247.473 77.3101 247.317 77.4807C247.168 77.6439 247.094 77.8367 247.094 78.0592C247.094 78.3114 247.191 78.5227 247.384 78.6933C247.532 78.8268 247.714 78.8936 247.929 78.8936C248.151 78.8936 248.348 78.8157 248.518 78.6599C248.681 78.4968 248.763 78.2965 248.763 78.0592C248.763 77.807 248.674 77.5994 248.496 77.4362C248.348 77.2953 248.159 77.2248 247.929 77.2248ZM247.906 79.8837C247.254 79.8837 246.738 79.6871 246.36 79.2941C246.049 78.9603 245.893 78.5598 245.893 78.0926C245.893 77.5808 246.045 77.1618 246.349 76.8355C246.698 76.4424 247.217 76.2459 247.906 76.2459C248.581 76.2459 249.108 76.4424 249.486 76.8355C249.798 77.1618 249.953 77.5697 249.953 78.0592C249.953 78.5487 249.794 78.9603 249.475 79.2941C249.097 79.6871 248.574 79.8837 247.906 79.8837Z" fill="white"/>
<path d="M233.264 116.675V118.311H227.312L229.192 116.342C229.867 115.637 230.375 115.01 230.716 114.462C230.983 114.046 231.117 113.661 231.117 113.305C231.117 112.993 231.042 112.756 230.894 112.593C230.761 112.444 230.579 112.37 230.349 112.37C230.075 112.37 229.86 112.47 229.704 112.671C229.541 112.878 229.452 113.182 229.437 113.583H227.445C227.453 112.752 227.727 112.066 228.269 111.525C228.803 110.991 229.504 110.724 230.371 110.724C231.254 110.724 231.951 110.98 232.463 111.491C232.945 111.973 233.186 112.582 233.186 113.316C233.186 114.102 232.819 114.836 232.084 115.518L230.839 116.675H233.264ZM239.2 110.891V112.526H236.63L236.497 113.349C236.727 113.312 236.927 113.294 237.097 113.294C237.928 113.294 238.581 113.538 239.055 114.028C239.508 114.48 239.734 115.066 239.734 115.785C239.734 116.535 239.497 117.154 239.022 117.643C238.481 118.2 237.709 118.478 236.708 118.478C235.744 118.478 234.91 118.255 234.205 117.81L234.494 116.008C234.776 116.268 235.073 116.468 235.384 116.609C235.748 116.779 236.118 116.865 236.497 116.865C236.912 116.865 237.235 116.742 237.465 116.497C237.657 116.29 237.754 116.038 237.754 115.741C237.754 115.415 237.635 115.148 237.398 114.94C237.123 114.695 236.678 114.573 236.063 114.573C235.566 114.573 235.11 114.677 234.694 114.884L235.34 110.891H239.2ZM242.744 114.45C242.092 114.45 241.576 114.254 241.198 113.861C240.887 113.527 240.731 113.127 240.731 112.659C240.731 112.148 240.883 111.729 241.187 111.402C241.536 111.009 242.055 110.813 242.744 110.813C243.419 110.813 243.946 111.009 244.324 111.402C244.636 111.729 244.791 112.137 244.791 112.626C244.791 113.116 244.632 113.527 244.313 113.861C243.935 114.254 243.412 114.45 242.744 114.45ZM242.711 118.311L247.005 110.891H247.973L243.668 118.311H242.711ZM242.767 111.792C242.515 111.792 242.311 111.877 242.155 112.048C242.007 112.211 241.932 112.404 241.932 112.626C241.932 112.878 242.029 113.09 242.222 113.26C242.37 113.394 242.552 113.46 242.767 113.46C242.989 113.46 243.186 113.383 243.356 113.227C243.52 113.064 243.601 112.863 243.601 112.626C243.601 112.381 243.512 112.174 243.334 112.003C243.186 111.862 242.997 111.792 242.767 111.792ZM247.929 115.741C247.676 115.741 247.473 115.826 247.317 115.997C247.168 116.16 247.094 116.353 247.094 116.575C247.094 116.827 247.191 117.039 247.384 117.209C247.532 117.343 247.714 117.41 247.929 117.41C248.151 117.41 248.348 117.332 248.518 117.176C248.681 117.013 248.763 116.813 248.763 116.575C248.763 116.323 248.674 116.115 248.496 115.952C248.348 115.811 248.159 115.741 247.929 115.741ZM247.906 118.4C247.254 118.4 246.738 118.203 246.36 117.81C246.049 117.476 245.893 117.076 245.893 116.609C245.893 116.097 246.045 115.678 246.349 115.352C246.698 114.959 247.217 114.762 247.906 114.762C248.581 114.762 249.108 114.959 249.486 115.352C249.798 115.678 249.953 116.086 249.953 116.575C249.953 117.065 249.794 117.476 249.475 117.81C249.097 118.203 248.574 118.4 247.906 118.4Z" fill="white"/>
<path d="M227.417 154.793H229.386C229.401 155.104 229.501 155.353 229.686 155.538C229.864 155.731 230.117 155.827 230.443 155.827C230.747 155.827 230.999 155.72 231.199 155.505C231.348 155.334 231.422 155.13 231.422 154.893C231.422 154.618 231.325 154.4 231.133 154.236C230.962 154.095 230.725 154.025 230.421 154.025C230.295 154.025 230.187 154.04 230.098 154.07V152.768C230.424 152.812 230.688 152.749 230.888 152.579C231.051 152.438 231.133 152.264 231.133 152.056C231.133 151.833 231.066 151.655 230.932 151.522C230.799 151.388 230.617 151.322 230.387 151.322C230.157 151.322 229.979 151.385 229.853 151.511C229.683 151.667 229.597 151.885 229.597 152.167H227.806C227.843 151.477 228.084 150.91 228.529 150.465C228.989 149.983 229.642 149.742 230.487 149.742C231.274 149.742 231.889 149.961 232.334 150.398C232.735 150.799 232.935 151.277 232.935 151.833C232.935 152.175 232.861 152.479 232.712 152.746C232.571 153.005 232.382 153.194 232.145 153.313C232.508 153.447 232.801 153.673 233.024 153.992C233.232 154.296 233.335 154.659 233.335 155.082C233.335 155.727 233.117 156.269 232.679 156.706C232.152 157.233 231.414 157.496 230.465 157.496C229.597 157.496 228.889 157.24 228.34 156.728C227.799 156.231 227.491 155.586 227.417 154.793ZM237.703 151.7C237.532 151.544 237.336 151.466 237.113 151.466C236.891 151.466 236.694 151.544 236.524 151.7C236.331 151.863 236.175 152.138 236.057 152.523C235.938 152.901 235.879 153.272 235.879 153.636C235.879 153.969 235.934 154.333 236.045 154.726C236.164 155.112 236.324 155.393 236.524 155.571C236.694 155.727 236.891 155.805 237.113 155.805C237.336 155.805 237.532 155.727 237.703 155.571C237.896 155.401 238.052 155.126 238.17 154.748C238.289 154.362 238.348 153.995 238.348 153.647C238.348 153.298 238.285 152.927 238.159 152.534C238.041 152.141 237.888 151.863 237.703 151.7ZM240.262 153.625C240.262 154.922 239.895 155.931 239.16 156.65C238.589 157.214 237.907 157.496 237.113 157.496C236.32 157.496 235.638 157.214 235.066 156.65C234.332 155.931 233.965 154.922 233.965 153.625C233.965 152.319 234.332 151.307 235.066 150.587C235.638 150.024 236.32 149.742 237.113 149.742C237.907 149.742 238.589 150.024 239.16 150.587C239.895 151.307 240.262 152.319 240.262 153.625ZM242.827 153.469C242.175 153.469 241.659 153.272 241.281 152.879C240.969 152.545 240.814 152.145 240.814 151.678C240.814 151.166 240.966 150.747 241.27 150.421C241.618 150.028 242.138 149.831 242.827 149.831C243.502 149.831 244.029 150.028 244.407 150.421C244.718 150.747 244.874 151.155 244.874 151.644C244.874 152.134 244.715 152.545 244.396 152.879C244.018 153.272 243.495 153.469 242.827 153.469ZM242.794 157.329L247.088 149.909H248.056L243.751 157.329H242.794ZM242.85 150.81C242.597 150.81 242.393 150.895 242.238 151.066C242.089 151.229 242.015 151.422 242.015 151.644C242.015 151.896 242.112 152.108 242.304 152.278C242.453 152.412 242.634 152.479 242.85 152.479C243.072 152.479 243.269 152.401 243.439 152.245C243.602 152.082 243.684 151.882 243.684 151.644C243.684 151.4 243.595 151.192 243.417 151.021C243.269 150.88 243.079 150.81 242.85 150.81ZM248.011 154.759C247.759 154.759 247.555 154.845 247.4 155.015C247.251 155.178 247.177 155.371 247.177 155.594C247.177 155.846 247.273 156.057 247.466 156.228C247.615 156.361 247.796 156.428 248.011 156.428C248.234 156.428 248.43 156.35 248.601 156.194C248.764 156.031 248.846 155.831 248.846 155.594C248.846 155.341 248.757 155.134 248.579 154.971C248.43 154.83 248.241 154.759 248.011 154.759ZM247.989 157.418C247.337 157.418 246.821 157.222 246.443 156.828C246.131 156.495 245.976 156.094 245.976 155.627C245.976 155.115 246.128 154.696 246.432 154.37C246.78 153.977 247.299 153.78 247.989 153.78C248.664 153.78 249.191 153.977 249.569 154.37C249.88 154.696 250.036 155.104 250.036 155.594C250.036 156.083 249.877 156.495 249.558 156.828C249.18 157.222 248.657 157.418 247.989 157.418Z" fill="white"/>
<path d="M227.417 196.763H229.386C229.401 197.075 229.501 197.323 229.686 197.508C229.864 197.701 230.117 197.798 230.443 197.798C230.747 197.798 230.999 197.69 231.199 197.475C231.348 197.305 231.422 197.101 231.422 196.863C231.422 196.589 231.325 196.37 231.133 196.207C230.962 196.066 230.725 195.995 230.421 195.995C230.295 195.995 230.187 196.01 230.098 196.04V194.738C230.424 194.783 230.688 194.72 230.888 194.549C231.051 194.408 231.133 194.234 231.133 194.026C231.133 193.804 231.066 193.626 230.932 193.492C230.799 193.359 230.617 193.292 230.387 193.292C230.157 193.292 229.979 193.355 229.853 193.481C229.683 193.637 229.597 193.856 229.597 194.138H227.806C227.843 193.448 228.084 192.881 228.529 192.436C228.989 191.953 229.642 191.712 230.487 191.712C231.274 191.712 231.889 191.931 232.334 192.369C232.735 192.769 232.935 193.248 232.935 193.804C232.935 194.145 232.861 194.449 232.712 194.716C232.571 194.976 232.382 195.165 232.145 195.284C232.508 195.417 232.801 195.643 233.024 195.962C233.232 196.266 233.335 196.63 233.335 197.052C233.335 197.698 233.117 198.239 232.679 198.677C232.152 199.203 231.414 199.466 230.465 199.466C229.597 199.466 228.889 199.211 228.34 198.699C227.799 198.202 227.491 197.557 227.417 196.763ZM239.283 191.879V193.515H236.713L236.579 194.338C236.809 194.301 237.01 194.282 237.18 194.282C238.011 194.282 238.664 194.527 239.138 195.017C239.591 195.469 239.817 196.055 239.817 196.774C239.817 197.523 239.579 198.143 239.105 198.632C238.563 199.188 237.792 199.466 236.791 199.466C235.827 199.466 234.992 199.244 234.288 198.799L234.577 196.997C234.859 197.256 235.155 197.457 235.467 197.597C235.83 197.768 236.201 197.853 236.579 197.853C236.995 197.853 237.317 197.731 237.547 197.486C237.74 197.279 237.837 197.026 237.837 196.73C237.837 196.403 237.718 196.136 237.481 195.929C237.206 195.684 236.761 195.562 236.146 195.562C235.649 195.562 235.193 195.665 234.777 195.873L235.422 191.879H239.283ZM242.827 195.439C242.175 195.439 241.659 195.243 241.281 194.85C240.969 194.516 240.814 194.115 240.814 193.648C240.814 193.136 240.966 192.717 241.27 192.391C241.618 191.998 242.138 191.801 242.827 191.801C243.502 191.801 244.029 191.998 244.407 192.391C244.718 192.717 244.874 193.125 244.874 193.615C244.874 194.104 244.715 194.516 244.396 194.85C244.018 195.243 243.495 195.439 242.827 195.439ZM242.794 199.3L247.088 191.879H248.056L243.751 199.3H242.794ZM242.85 192.78C242.597 192.78 242.393 192.866 242.238 193.036C242.089 193.199 242.015 193.392 242.015 193.615C242.015 193.867 242.112 194.078 242.304 194.249C242.453 194.382 242.634 194.449 242.85 194.449C243.072 194.449 243.269 194.371 243.439 194.216C243.602 194.052 243.684 193.852 243.684 193.615C243.684 193.37 243.595 193.162 243.417 192.992C243.269 192.851 243.079 192.78 242.85 192.78ZM248.011 196.73C247.759 196.73 247.555 196.815 247.4 196.986C247.251 197.149 247.177 197.342 247.177 197.564C247.177 197.816 247.273 198.028 247.466 198.198C247.615 198.332 247.796 198.398 248.011 198.398C248.234 198.398 248.43 198.321 248.601 198.165C248.764 198.002 248.846 197.801 248.846 197.564C248.846 197.312 248.757 197.104 248.579 196.941C248.43 196.8 248.241 196.73 248.011 196.73ZM247.989 199.389C247.337 199.389 246.821 199.192 246.443 198.799C246.131 198.465 245.976 198.065 245.976 197.597C245.976 197.086 246.128 196.667 246.432 196.34C246.78 195.947 247.299 195.751 247.989 195.751C248.664 195.751 249.191 195.947 249.569 196.34C249.88 196.667 250.036 197.075 250.036 197.564C250.036 198.054 249.877 198.465 249.558 198.799C249.18 199.192 248.657 199.389 247.989 199.389Z" fill="white"/>
<path d="M232.601 228.936V233.475H233.502V234.955H232.601V236.357H230.821V234.955H227.228V233.72L230.087 228.936H232.601ZM229.075 233.475H230.821V230.449L229.075 233.475ZM237.703 230.728C237.532 230.572 237.336 230.494 237.113 230.494C236.891 230.494 236.694 230.572 236.524 230.728C236.331 230.891 236.175 231.165 236.057 231.551C235.938 231.929 235.879 232.3 235.879 232.663C235.879 232.997 235.934 233.36 236.045 233.753C236.164 234.139 236.324 234.421 236.524 234.599C236.694 234.755 236.891 234.833 237.113 234.833C237.336 234.833 237.532 234.755 237.703 234.599C237.896 234.428 238.052 234.154 238.17 233.776C238.289 233.39 238.348 233.023 238.348 232.674C238.348 232.326 238.285 231.955 238.159 231.562C238.041 231.169 237.888 230.891 237.703 230.728ZM240.262 232.652C240.262 233.95 239.895 234.959 239.16 235.678C238.589 236.242 237.907 236.524 237.113 236.524C236.32 236.524 235.638 236.242 235.066 235.678C234.332 234.959 233.965 233.95 233.965 232.652C233.965 231.347 234.332 230.334 235.066 229.615C235.638 229.051 236.32 228.77 237.113 228.77C237.907 228.77 238.589 229.051 239.16 229.615C239.895 230.334 240.262 231.347 240.262 232.652ZM242.827 232.496C242.175 232.496 241.659 232.3 241.281 231.907C240.969 231.573 240.814 231.173 240.814 230.705C240.814 230.194 240.966 229.775 241.27 229.448C241.618 229.055 242.138 228.859 242.827 228.859C243.502 228.859 244.029 229.055 244.407 229.448C244.718 229.775 244.874 230.182 244.874 230.672C244.874 231.161 244.715 231.573 244.396 231.907C244.018 232.3 243.495 232.496 242.827 232.496ZM242.794 236.357L247.088 228.936H248.056L243.751 236.357H242.794ZM242.85 229.838C242.597 229.838 242.393 229.923 242.238 230.093C242.089 230.257 242.015 230.449 242.015 230.672C242.015 230.924 242.112 231.135 242.304 231.306C242.453 231.44 242.634 231.506 242.85 231.506C243.072 231.506 243.269 231.428 243.439 231.273C243.602 231.109 243.684 230.909 243.684 230.672C243.684 230.427 243.595 230.22 243.417 230.049C243.269 229.908 243.079 229.838 242.85 229.838ZM248.011 233.787C247.759 233.787 247.555 233.872 247.4 234.043C247.251 234.206 247.177 234.399 247.177 234.621C247.177 234.873 247.273 235.085 247.466 235.255C247.615 235.389 247.796 235.456 248.011 235.456C248.234 235.456 248.43 235.378 248.601 235.222C248.764 235.059 248.846 234.859 248.846 234.621C248.846 234.369 248.757 234.161 248.579 233.998C248.43 233.857 248.241 233.787 248.011 233.787ZM247.989 236.446C247.337 236.446 246.821 236.249 246.443 235.856C246.131 235.522 245.976 235.122 245.976 234.655C245.976 234.143 246.128 233.724 246.432 233.397C246.78 233.004 247.299 232.808 247.989 232.808C248.664 232.808 249.191 233.004 249.569 233.397C249.88 233.724 250.036 234.132 250.036 234.621C250.036 235.111 249.877 235.522 249.558 235.856C249.18 236.249 248.657 236.446 247.989 236.446Z" fill="white"/>
<path d="M232.601 272.479V277.018H233.502V278.497H232.601V279.899H230.821V278.497H227.228V277.262L230.087 272.479H232.601ZM229.075 277.018H230.821V273.992L229.075 277.018ZM239.283 272.479V274.114H236.713L236.579 274.937C236.809 274.9 237.01 274.882 237.18 274.882C238.011 274.882 238.664 275.126 239.138 275.616C239.591 276.068 239.817 276.654 239.817 277.374C239.817 278.123 239.579 278.742 239.105 279.231C238.563 279.788 237.792 280.066 236.791 280.066C235.827 280.066 234.992 279.843 234.288 279.398L234.577 277.596C234.859 277.856 235.155 278.056 235.467 278.197C235.83 278.367 236.201 278.453 236.579 278.453C236.995 278.453 237.317 278.33 237.547 278.086C237.74 277.878 237.837 277.626 237.837 277.329C237.837 277.003 237.718 276.736 237.481 276.528C237.206 276.283 236.761 276.161 236.146 276.161C235.649 276.161 235.193 276.265 234.777 276.472L235.422 272.479H239.283ZM242.827 276.039C242.175 276.039 241.659 275.842 241.281 275.449C240.969 275.115 240.814 274.715 240.814 274.248C240.814 273.736 240.966 273.317 241.27 272.99C241.618 272.597 242.138 272.401 242.827 272.401C243.502 272.401 244.029 272.597 244.407 272.99C244.718 273.317 244.874 273.725 244.874 274.214C244.874 274.704 244.715 275.115 244.396 275.449C244.018 275.842 243.495 276.039 242.827 276.039ZM242.794 279.899L247.088 272.479H248.056L243.751 279.899H242.794ZM242.85 273.38C242.597 273.38 242.393 273.465 242.238 273.636C242.089 273.799 242.015 273.992 242.015 274.214C242.015 274.466 242.112 274.678 242.304 274.848C242.453 274.982 242.634 275.049 242.85 275.049C243.072 275.049 243.269 274.971 243.439 274.815C243.602 274.652 243.684 274.451 243.684 274.214C243.684 273.969 243.595 273.762 243.417 273.591C243.269 273.45 243.079 273.38 242.85 273.38ZM248.011 277.329C247.759 277.329 247.555 277.414 247.4 277.585C247.251 277.748 247.177 277.941 247.177 278.163C247.177 278.416 247.273 278.627 247.466 278.798C247.615 278.931 247.796 278.998 248.011 278.998C248.234 278.998 248.43 278.92 248.601 278.764C248.764 278.601 248.846 278.401 248.846 278.163C248.846 277.911 248.757 277.704 248.579 277.54C248.43 277.4 248.241 277.329 248.011 277.329ZM247.989 279.988C247.337 279.988 246.821 279.791 246.443 279.398C246.131 279.065 245.976 278.664 245.976 278.197C245.976 277.685 246.128 277.266 246.432 276.94C246.78 276.547 247.299 276.35 247.989 276.35C248.664 276.35 249.191 276.547 249.569 276.94C249.88 277.266 250.036 277.674 250.036 278.163C250.036 278.653 249.877 279.065 249.558 279.398C249.18 279.791 248.657 279.988 247.989 279.988Z" fill="white"/>
<path d="M205.541 309.982V311.617H202.971L202.838 312.44C203.068 312.403 203.268 312.385 203.438 312.385C204.269 312.385 204.922 312.629 205.396 313.119C205.849 313.571 206.075 314.157 206.075 314.877C206.075 315.626 205.838 316.245 205.363 316.734C204.822 317.291 204.05 317.569 203.049 317.569C202.085 317.569 201.25 317.346 200.546 316.901L200.835 315.099C201.117 315.359 201.414 315.559 201.725 315.7C202.089 315.87 202.459 315.956 202.838 315.956C203.253 315.956 203.576 315.833 203.805 315.589C203.998 315.381 204.095 315.129 204.095 314.832C204.095 314.506 203.976 314.239 203.739 314.031C203.464 313.786 203.019 313.664 202.404 313.664C201.907 313.664 201.451 313.768 201.035 313.975L201.681 309.982H205.541ZM210.632 311.773C210.461 311.617 210.265 311.539 210.042 311.539C209.82 311.539 209.623 311.617 209.453 311.773C209.26 311.936 209.104 312.21 208.985 312.596C208.867 312.974 208.807 313.345 208.807 313.708C208.807 314.042 208.863 314.406 208.974 314.799C209.093 315.184 209.252 315.466 209.453 315.644C209.623 315.8 209.82 315.878 210.042 315.878C210.265 315.878 210.461 315.8 210.632 315.644C210.825 315.474 210.98 315.199 211.099 314.821C211.218 314.435 211.277 314.068 211.277 313.72C211.277 313.371 211.214 313 211.088 312.607C210.969 312.214 210.817 311.936 210.632 311.773ZM213.19 313.697C213.19 314.995 212.823 316.004 212.089 316.723C211.518 317.287 210.836 317.569 210.042 317.569C209.249 317.569 208.566 317.287 207.995 316.723C207.261 316.004 206.894 314.995 206.894 313.697C206.894 312.392 207.261 311.38 207.995 310.66C208.566 310.097 209.249 309.815 210.042 309.815C210.836 309.815 211.518 310.097 212.089 310.66C212.823 311.38 213.19 312.392 213.19 313.697ZM215.756 313.542C215.103 313.542 214.588 313.345 214.21 312.952C213.898 312.618 213.742 312.218 213.742 311.75C213.742 311.239 213.894 310.82 214.198 310.493C214.547 310.1 215.066 309.904 215.756 309.904C216.431 309.904 216.957 310.1 217.336 310.493C217.647 310.82 217.803 311.228 217.803 311.717C217.803 312.207 217.643 312.618 217.325 312.952C216.946 313.345 216.423 313.542 215.756 313.542ZM215.723 317.402L220.017 309.982H220.985L216.679 317.402H215.723ZM215.778 310.883C215.526 310.883 215.322 310.968 215.166 311.139C215.018 311.302 214.944 311.495 214.944 311.717C214.944 311.969 215.04 312.181 215.233 312.351C215.381 312.485 215.563 312.551 215.778 312.551C216.001 312.551 216.197 312.474 216.368 312.318C216.531 312.155 216.613 311.954 216.613 311.717C216.613 311.472 216.524 311.265 216.346 311.094C216.197 310.953 216.008 310.883 215.778 310.883ZM220.94 314.832C220.688 314.832 220.484 314.917 220.328 315.088C220.18 315.251 220.106 315.444 220.106 315.666C220.106 315.919 220.202 316.13 220.395 316.3C220.543 316.434 220.725 316.501 220.94 316.501C221.163 316.501 221.359 316.423 221.53 316.267C221.693 316.104 221.774 315.904 221.774 315.666C221.774 315.414 221.685 315.207 221.507 315.043C221.359 314.902 221.17 314.832 220.94 314.832ZM220.918 317.491C220.265 317.491 219.75 317.294 219.372 316.901C219.06 316.567 218.904 316.167 218.904 315.7C218.904 315.188 219.056 314.769 219.36 314.443C219.709 314.05 220.228 313.853 220.918 313.853C221.593 313.853 222.119 314.05 222.498 314.443C222.809 314.769 222.965 315.177 222.965 315.666C222.965 316.156 222.805 316.567 222.486 316.901C222.108 317.294 221.585 317.491 220.918 317.491ZM229.339 318.826L228.081 319.493C227.622 318.826 227.258 317.995 226.991 317.001C226.776 316.171 226.669 315.303 226.669 314.398C226.669 313.36 226.806 312.388 227.08 311.483C227.303 310.757 227.636 310.026 228.081 309.292L229.339 309.959C228.96 310.649 228.686 311.32 228.515 311.973C228.308 312.752 228.204 313.542 228.204 314.343C228.204 315.099 228.293 315.867 228.471 316.645C228.641 317.394 228.931 318.121 229.339 318.826ZM233.327 317.402H230.635V309.982H233.16C234.421 309.982 235.404 310.323 236.108 311.005C236.798 311.665 237.143 312.566 237.143 313.708C237.143 314.776 236.82 315.633 236.175 316.278C235.849 316.605 235.441 316.875 234.951 317.09C234.462 317.298 233.92 317.402 233.327 317.402ZM232.559 311.617V315.767H232.949C233.668 315.767 234.21 315.589 234.573 315.233C234.951 314.869 235.14 314.361 235.14 313.708C235.14 312.989 234.947 312.448 234.562 312.084C234.228 311.773 233.716 311.617 233.027 311.617H232.559ZM242.586 309.982V311.617H240.295V312.852H242.464V314.487H240.295V315.767H242.586V317.402H238.37V309.982H242.586ZM248.063 309.982V311.617H245.737V312.852H247.851V314.487H245.737V317.402H243.813V309.982H248.063ZM253.773 317.402L253.316 316.156H250.624L250.124 317.402H248.088L250.936 309.982H253.038L255.831 317.402H253.773ZM251.158 314.687H252.805L251.97 312.284L251.158 314.687ZM256.687 309.982H258.611V314.376C258.611 314.895 258.737 315.277 258.99 315.522C259.242 315.759 259.546 315.878 259.902 315.878C260.258 315.878 260.555 315.77 260.792 315.555C260.925 315.436 261.025 315.288 261.092 315.11C261.166 314.925 261.207 314.78 261.215 314.676C261.222 314.565 261.226 314.409 261.226 314.209V309.982H263.15V314.242C263.15 314.569 263.139 314.839 263.117 315.055C263.095 315.262 263.017 315.518 262.883 315.822C262.757 316.119 262.568 316.393 262.316 316.645C261.708 317.261 260.892 317.569 259.869 317.569C258.786 317.569 257.966 317.272 257.41 316.679C256.928 316.152 256.687 315.34 256.687 314.242V309.982ZM264.704 309.982H266.629V315.767H268.943V317.402H264.704V309.982ZM273.629 311.617H272.049V317.402H270.125V311.617H268.545V309.982H273.629V311.617ZM275.483 319.493L274.226 318.826C274.634 318.121 274.923 317.394 275.094 316.645C275.272 315.867 275.361 315.099 275.361 314.343C275.361 313.542 275.257 312.752 275.05 311.973C274.879 311.32 274.605 310.649 274.226 309.959L275.483 309.292C275.928 310.026 276.262 310.757 276.485 311.483C276.759 312.381 276.896 313.356 276.896 314.409C276.896 315.307 276.789 316.171 276.574 317.001C276.307 317.995 275.943 318.826 275.483 319.493Z" fill="white"/>
<path d="M232.612 349.142V350.777H230.042L229.909 351.6C230.139 351.563 230.339 351.544 230.51 351.544C231.34 351.544 231.993 351.789 232.468 352.279C232.92 352.731 233.146 353.317 233.146 354.036C233.146 354.786 232.909 355.405 232.434 355.894C231.893 356.451 231.122 356.729 230.12 356.729C229.156 356.729 228.322 356.506 227.617 356.061L227.906 354.259C228.188 354.519 228.485 354.719 228.796 354.86C229.16 355.03 229.531 355.116 229.909 355.116C230.324 355.116 230.647 354.993 230.877 354.748C231.07 354.541 231.166 354.289 231.166 353.992C231.166 353.666 231.047 353.399 230.81 353.191C230.536 352.946 230.091 352.824 229.475 352.824C228.978 352.824 228.522 352.928 228.107 353.135L228.752 349.142H232.612ZM239.283 349.142V350.777H236.713L236.579 351.6C236.809 351.563 237.01 351.544 237.18 351.544C238.011 351.544 238.664 351.789 239.138 352.279C239.591 352.731 239.817 353.317 239.817 354.036C239.817 354.786 239.579 355.405 239.105 355.894C238.563 356.451 237.792 356.729 236.791 356.729C235.827 356.729 234.992 356.506 234.288 356.061L234.577 354.259C234.859 354.519 235.155 354.719 235.467 354.86C235.83 355.03 236.201 355.116 236.579 355.116C236.995 355.116 237.317 354.993 237.547 354.748C237.74 354.541 237.837 354.289 237.837 353.992C237.837 353.666 237.718 353.399 237.481 353.191C237.206 352.946 236.761 352.824 236.146 352.824C235.649 352.824 235.193 352.928 234.777 353.135L235.422 349.142H239.283ZM242.827 352.701C242.175 352.701 241.659 352.505 241.281 352.112C240.969 351.778 240.814 351.378 240.814 350.91C240.814 350.399 240.966 349.98 241.27 349.653C241.618 349.26 242.138 349.064 242.827 349.064C243.502 349.064 244.029 349.26 244.407 349.653C244.718 349.98 244.874 350.388 244.874 350.877C244.874 351.366 244.715 351.778 244.396 352.112C244.018 352.505 243.495 352.701 242.827 352.701ZM242.794 356.562L247.088 349.142H248.056L243.751 356.562H242.794ZM242.85 350.043C242.597 350.043 242.393 350.128 242.238 350.299C242.089 350.462 242.015 350.654 242.015 350.877C242.015 351.129 242.112 351.341 242.304 351.511C242.453 351.645 242.634 351.711 242.85 351.711C243.072 351.711 243.269 351.633 243.439 351.478C243.602 351.315 243.684 351.114 243.684 350.877C243.684 350.632 243.595 350.425 243.417 350.254C243.269 350.113 243.079 350.043 242.85 350.043ZM248.011 353.992C247.759 353.992 247.555 354.077 247.4 354.248C247.251 354.411 247.177 354.604 247.177 354.826C247.177 355.078 247.273 355.29 247.466 355.46C247.615 355.594 247.796 355.661 248.011 355.661C248.234 355.661 248.43 355.583 248.601 355.427C248.764 355.264 248.846 355.064 248.846 354.826C248.846 354.574 248.757 354.366 248.579 354.203C248.43 354.062 248.241 353.992 248.011 353.992ZM247.989 356.651C247.337 356.651 246.821 356.454 246.443 356.061C246.131 355.727 245.976 355.327 245.976 354.86C245.976 354.348 246.128 353.929 246.432 353.603C246.78 353.209 247.299 353.013 247.989 353.013C248.664 353.013 249.191 353.209 249.569 353.603C249.88 353.929 250.036 354.337 250.036 354.826C250.036 355.316 249.877 355.727 249.558 356.061C249.18 356.454 248.657 356.651 247.989 356.651Z" fill="white"/>
<path d="M67.1647 118.311V112.526H66.1079V110.891H69.0893V118.311H67.1647ZM74.1922 112.682C74.0216 112.526 73.8251 112.448 73.6026 112.448C73.3801 112.448 73.1836 112.526 73.013 112.682C72.8202 112.845 72.6644 113.119 72.5457 113.505C72.4271 113.883 72.3677 114.254 72.3677 114.617C72.3677 114.951 72.4234 115.315 72.5346 115.708C72.6533 116.093 72.8127 116.375 73.013 116.553C73.1836 116.709 73.3801 116.787 73.6026 116.787C73.8251 116.787 74.0216 116.709 74.1922 116.553C74.385 116.382 74.5408 116.108 74.6595 115.73C74.7781 115.344 74.8375 114.977 74.8375 114.628C74.8375 114.28 74.7744 113.909 74.6483 113.516C74.5297 113.123 74.3776 112.845 74.1922 112.682ZM76.7509 114.606C76.7509 115.904 76.3838 116.913 75.6496 117.632C75.0785 118.196 74.3962 118.478 73.6026 118.478C72.809 118.478 72.1267 118.196 71.5556 117.632C70.8214 116.913 70.4543 115.904 70.4543 114.606C70.4543 113.301 70.8214 112.289 71.5556 111.569C72.1267 111.006 72.809 110.724 73.6026 110.724C74.3962 110.724 75.0785 111.006 75.6496 111.569C76.3838 112.289 76.7509 113.301 76.7509 114.606ZM77.4919 116.064V114.584H80.3065V116.064H77.4919ZM87.0986 116.675V118.311H81.1469L83.027 116.342C83.7019 115.637 84.2099 115.01 84.5511 114.462C84.8181 114.046 84.9516 113.661 84.9516 113.305C84.9516 112.993 84.8774 112.756 84.7291 112.593C84.5956 112.444 84.4139 112.37 84.1839 112.37C83.9095 112.37 83.6944 112.47 83.5387 112.671C83.3755 112.878 83.2865 113.182 83.2717 113.583H81.2804C81.2878 112.752 81.5622 112.066 82.1036 111.525C82.6376 110.991 83.3385 110.724 84.2062 110.724C85.0888 110.724 85.7859 110.98 86.2977 111.491C86.7797 111.973 87.0208 112.582 87.0208 113.316C87.0208 114.102 86.6536 114.836 85.9194 115.518L84.6734 116.675H87.0986ZM93.0238 110.891V115.429H93.9249V116.909H93.0238V118.311H91.2438V116.909H87.6505V115.674L90.5096 110.891H93.0238ZM89.4973 115.429H91.2438V112.404L89.4973 115.429Z" fill="white"/>
<path d="M70.8025 155.307V156.942H64.8508L66.7309 154.973C67.4058 154.268 67.9138 153.642 68.255 153.093C68.522 152.677 68.6555 152.292 68.6555 151.936C68.6555 151.624 68.5813 151.387 68.433 151.224C68.2995 151.075 68.1178 151.001 67.8878 151.001C67.6134 151.001 67.3983 151.101 67.2426 151.302C67.0794 151.509 66.9904 151.813 66.9756 152.214H64.9843C64.9917 151.383 65.2661 150.697 65.8075 150.156C66.3415 149.622 67.0424 149.355 67.9101 149.355C68.7927 149.355 69.4898 149.611 70.0016 150.122C70.4836 150.604 70.7247 151.213 70.7247 151.947C70.7247 152.733 70.3575 153.467 69.6233 154.15L68.3773 155.307H70.8025ZM76.7388 149.522V151.157H74.169L74.0355 151.98C74.2654 151.943 74.4657 151.925 74.6363 151.925C75.4669 151.925 76.1196 152.169 76.5942 152.659C77.0466 153.111 77.2728 153.697 77.2728 154.417C77.2728 155.166 77.0355 155.785 76.5608 156.274C76.0194 156.831 75.2481 157.109 74.2469 157.109C73.2827 157.109 72.4484 156.886 71.7438 156.441L72.033 154.639C72.3149 154.899 72.6115 155.099 72.923 155.24C73.2864 155.41 73.6573 155.496 74.0355 155.496C74.4508 155.496 74.7735 155.373 75.0034 155.129C75.1962 154.921 75.2926 154.669 75.2926 154.372C75.2926 154.046 75.174 153.779 74.9366 153.571C74.6622 153.326 74.2172 153.204 73.6016 153.204C73.1047 153.204 72.6486 153.308 72.2333 153.515L72.8785 149.522H76.7388ZM78.4588 154.695V153.215H81.2734V154.695H78.4588ZM82.136 154.405H84.1051C84.1199 154.717 84.2201 154.965 84.4055 155.151C84.5835 155.344 84.8356 155.44 85.162 155.44C85.466 155.44 85.7182 155.333 85.9185 155.117C86.0668 154.947 86.141 154.743 86.141 154.506C86.141 154.231 86.0445 154.012 85.8517 153.849C85.6811 153.708 85.4438 153.638 85.1397 153.638C85.0136 153.638 84.9061 153.653 84.8171 153.682V152.381C85.1434 152.425 85.4067 152.362 85.607 152.192C85.7701 152.051 85.8517 151.876 85.8517 151.669C85.8517 151.446 85.785 151.268 85.6515 151.135C85.518 151.001 85.3363 150.934 85.1063 150.934C84.8764 150.934 84.6984 150.998 84.5724 151.124C84.4018 151.279 84.3165 151.498 84.3165 151.78H82.5254C82.5625 151.09 82.8035 150.523 83.2485 150.078C83.7083 149.596 84.361 149.355 85.2065 149.355C85.9926 149.355 86.6082 149.574 87.0532 150.011C87.4537 150.412 87.6539 150.89 87.6539 151.446C87.6539 151.787 87.5798 152.091 87.4314 152.358C87.2905 152.618 87.1014 152.807 86.8641 152.926C87.2275 153.059 87.5204 153.286 87.7429 153.604C87.9506 153.909 88.0544 154.272 88.0544 154.695C88.0544 155.34 87.8356 155.881 87.3981 156.319C86.8715 156.845 86.1335 157.109 85.1842 157.109C84.3165 157.109 83.6082 156.853 83.0594 156.341C82.518 155.844 82.2102 155.199 82.136 154.405ZM93.9907 149.522V154.061H94.8918V155.54H93.9907V156.942H92.2107V155.54H88.6174V154.305L91.4765 149.522H93.9907ZM90.4642 154.061H92.2107V151.035L90.4642 154.061Z" fill="white"/>
<path d="M64.873 196.763H66.8421C66.8569 197.075 66.9571 197.323 67.1425 197.508C67.3205 197.701 67.5726 197.798 67.899 197.798C68.203 197.798 68.4552 197.69 68.6555 197.475C68.8038 197.305 68.8779 197.101 68.8779 196.863C68.8779 196.589 68.7815 196.37 68.5887 196.207C68.4181 196.066 68.1808 195.995 67.8767 195.995C67.7506 195.995 67.6431 196.01 67.5541 196.04V194.738C67.8804 194.783 68.1437 194.72 68.344 194.549C68.5071 194.408 68.5887 194.234 68.5887 194.026C68.5887 193.804 68.522 193.626 68.3885 193.492C68.255 193.359 68.0733 193.292 67.8433 193.292C67.6134 193.292 67.4354 193.355 67.3094 193.481C67.1388 193.637 67.0535 193.856 67.0535 194.138H65.2624C65.2995 193.448 65.5405 192.881 65.9855 192.436C66.4453 191.953 67.098 191.712 67.9435 191.712C68.7296 191.712 69.3452 191.931 69.7902 192.369C70.1907 192.769 70.3909 193.248 70.3909 193.804C70.3909 194.145 70.3168 194.449 70.1684 194.716C70.0275 194.976 69.8384 195.165 69.6011 195.284C69.9645 195.417 70.2574 195.643 70.4799 195.962C70.6876 196.266 70.7914 196.63 70.7914 197.052C70.7914 197.698 70.5726 198.239 70.1351 198.677C69.6085 199.203 68.8705 199.466 67.9212 199.466C67.0535 199.466 66.3452 199.211 65.7964 198.699C65.255 198.202 64.9472 197.557 64.873 196.763ZM76.7388 191.879V193.515H74.169L74.0355 194.338C74.2654 194.301 74.4657 194.282 74.6363 194.282C75.4669 194.282 76.1196 194.527 76.5942 195.017C77.0466 195.469 77.2728 196.055 77.2728 196.774C77.2728 197.523 77.0355 198.143 76.5608 198.632C76.0194 199.188 75.2481 199.466 74.2469 199.466C73.2827 199.466 72.4484 199.244 71.7438 198.799L72.033 196.997C72.3149 197.256 72.6115 197.457 72.923 197.597C73.2864 197.768 73.6573 197.853 74.0355 197.853C74.4508 197.853 74.7735 197.731 75.0034 197.486C75.1962 197.279 75.2926 197.026 75.2926 196.73C75.2926 196.403 75.174 196.136 74.9366 195.929C74.6622 195.684 74.2172 195.562 73.6016 195.562C73.1047 195.562 72.6486 195.665 72.2333 195.873L72.8785 191.879H76.7388ZM78.4588 197.052V195.573H81.2734V197.052H78.4588ZM87.3202 191.879V196.418H88.2213V197.898H87.3202V199.3H85.5402V197.898H81.9469V196.663L84.806 191.879H87.3202ZM83.7936 196.418H85.5402V193.392L83.7936 196.418ZM94.2732 191.879V196.418H95.1743V197.898H94.2732V199.3H92.4932V197.898H88.8999V196.663L91.759 191.879H94.2732ZM90.7466 196.418H92.4932V193.392L90.7466 196.418Z" fill="white"/>
<path d="M70.0572 228.936V233.475H70.9583V234.955H70.0572V236.357H68.2772V234.955H64.6839V233.72L67.543 228.936H70.0572ZM66.5306 233.475H68.2772V230.449L66.5306 233.475ZM76.7388 228.936V230.572H74.169L74.0355 231.395C74.2654 231.358 74.4657 231.339 74.6363 231.339C75.4669 231.339 76.1196 231.584 76.5942 232.074C77.0466 232.526 77.2728 233.112 77.2728 233.831C77.2728 234.58 77.0355 235.2 76.5608 235.689C76.0194 236.245 75.2481 236.524 74.2469 236.524C73.2827 236.524 72.4484 236.301 71.7438 235.856L72.033 234.054C72.3149 234.313 72.6115 234.514 72.923 234.655C73.2864 234.825 73.6573 234.91 74.0355 234.91C74.4508 234.91 74.7735 234.788 75.0034 234.543C75.1962 234.336 75.2926 234.084 75.2926 233.787C75.2926 233.461 75.174 233.194 74.9366 232.986C74.6622 232.741 74.2172 232.619 73.6016 232.619C73.1047 232.619 72.6486 232.723 72.2333 232.93L72.8785 228.936H76.7388ZM78.4588 234.109V232.63H81.2734V234.109H78.4588ZM87.3313 228.936V230.572H84.7615L84.628 231.395C84.8579 231.358 85.0581 231.339 85.2287 231.339C86.0594 231.339 86.712 231.584 87.1867 232.074C87.6391 232.526 87.8653 233.112 87.8653 233.831C87.8653 234.58 87.628 235.2 87.1533 235.689C86.6119 236.245 85.8406 236.524 84.8394 236.524C83.8752 236.524 83.0408 236.301 82.3363 235.856L82.6255 234.054C82.9073 234.313 83.204 234.514 83.5155 234.655C83.8789 234.825 84.2497 234.91 84.628 234.91C85.0433 234.91 85.3659 234.788 85.5958 234.543C85.7887 234.336 85.8851 234.084 85.8851 233.787C85.8851 233.461 85.7664 233.194 85.5291 232.986C85.2547 232.741 84.8097 232.619 84.1941 232.619C83.6972 232.619 83.2411 232.723 82.8258 232.93L83.471 228.936H87.3313ZM93.9907 228.936V233.475H94.8918V234.955H93.9907V236.357H92.2107V234.955H88.6174V233.72L91.4765 228.936H93.9907ZM90.4642 233.475H92.2107V230.449L90.4642 233.475Z" fill="white"/>
<path d="M70.0683 272.479V274.114H67.4985L67.365 274.937C67.5949 274.9 67.7951 274.882 67.9657 274.882C68.7964 274.882 69.449 275.126 69.9237 275.616C70.3761 276.068 70.6023 276.654 70.6023 277.374C70.6023 278.123 70.365 278.742 69.8903 279.231C69.3489 279.788 68.5776 280.066 67.5763 280.066C66.6122 280.066 65.7778 279.843 65.0733 279.398L65.3625 277.596C65.6443 277.856 65.941 278.056 66.2525 278.197C66.6159 278.367 66.9867 278.453 67.365 278.453C67.7803 278.453 68.1029 278.33 68.3328 278.086C68.5257 277.878 68.6221 277.626 68.6221 277.329C68.6221 277.003 68.5034 276.736 68.2661 276.528C67.9917 276.283 67.5467 276.161 66.9311 276.161C66.4342 276.161 65.9781 276.265 65.5628 276.472L66.208 272.479H70.0683ZM76.7388 272.479V274.114H74.169L74.0355 274.937C74.2654 274.9 74.4657 274.882 74.6363 274.882C75.4669 274.882 76.1196 275.126 76.5942 275.616C77.0466 276.068 77.2728 276.654 77.2728 277.374C77.2728 278.123 77.0355 278.742 76.5608 279.231C76.0194 279.788 75.2481 280.066 74.2469 280.066C73.2827 280.066 72.4484 279.843 71.7438 279.398L72.033 277.596C72.3149 277.856 72.6115 278.056 72.923 278.197C73.2864 278.367 73.6573 278.453 74.0355 278.453C74.4508 278.453 74.7735 278.33 75.0034 278.086C75.1962 277.878 75.2926 277.626 75.2926 277.329C75.2926 277.003 75.174 276.736 74.9366 276.528C74.6622 276.283 74.2172 276.161 73.6016 276.161C73.1047 276.161 72.6486 276.265 72.2333 276.472L72.8785 272.479H76.7388ZM78.4588 277.652V276.172H81.2734V277.652H78.4588ZM85.5291 279.899H83.3486L85.4512 277.396C85.162 277.552 84.8319 277.629 84.4611 277.629C83.7862 277.629 83.2188 277.403 82.759 276.951C82.2621 276.461 82.0136 275.864 82.0136 275.16C82.0136 274.403 82.2621 273.765 82.759 273.246C83.3672 272.623 84.1793 272.312 85.1953 272.312C86.1966 272.312 86.9901 272.605 87.5761 273.191C88.0655 273.695 88.3103 274.307 88.3103 275.026C88.3103 275.872 87.9358 276.78 87.1867 277.752L85.5291 279.899ZM85.2176 273.836C84.8838 273.836 84.5983 273.955 84.361 274.192C84.1162 274.437 83.9939 274.718 83.9939 275.037C83.9939 275.349 84.1125 275.616 84.3499 275.838C84.5872 276.061 84.8764 276.172 85.2176 276.172C85.5439 276.172 85.822 276.068 86.052 275.861C86.3115 275.631 86.4413 275.349 86.4413 275.015C86.4413 274.704 86.3227 274.429 86.0853 274.192C85.8332 273.955 85.5439 273.836 85.2176 273.836ZM92.1996 279.899H90.0192L92.1218 277.396C91.8325 277.552 91.5025 277.629 91.1316 277.629C90.4567 277.629 89.8894 277.403 89.4295 276.951C88.9326 276.461 88.6842 275.864 88.6842 275.16C88.6842 274.403 88.9326 273.765 89.4295 273.246C90.0377 272.623 90.8498 272.312 91.8659 272.312C92.8671 272.312 93.6607 272.605 94.2466 273.191C94.7361 273.695 94.9808 274.307 94.9808 275.026C94.9808 275.872 94.6063 276.78 93.8572 277.752L92.1996 279.899ZM91.8881 273.836C91.5544 273.836 91.2688 273.955 91.0315 274.192C90.7868 274.437 90.6644 274.718 90.6644 275.037C90.6644 275.349 90.7831 275.616 91.0204 275.838C91.2577 276.061 91.547 276.172 91.8881 276.172C92.2145 276.172 92.4926 276.068 92.7225 275.861C92.9821 275.631 93.1119 275.349 93.1119 275.015C93.1119 274.704 92.9932 274.429 92.7559 274.192C92.5037 273.955 92.2145 273.836 91.8881 273.836Z" fill="white"/>
<path d="M69.7602 317.402V311.617H68.7033V309.982H71.6848V317.402H69.7602ZM76.7877 311.773C76.6171 311.617 76.4206 311.539 76.1981 311.539C75.9756 311.539 75.779 311.617 75.6084 311.773C75.4156 311.936 75.2599 312.21 75.1412 312.596C75.0225 312.974 74.9632 313.345 74.9632 313.708C74.9632 314.042 75.0188 314.406 75.1301 314.799C75.2487 315.184 75.4082 315.466 75.6084 315.644C75.779 315.8 75.9756 315.878 76.1981 315.878C76.4206 315.878 76.6171 315.8 76.7877 315.644C76.9805 315.474 77.1363 315.199 77.2549 314.821C77.3736 314.435 77.4329 314.068 77.4329 313.72C77.4329 313.371 77.3699 313 77.2438 312.607C77.1251 312.214 76.9731 311.936 76.7877 311.773ZM79.3464 313.697C79.3464 314.995 78.9793 316.004 78.245 316.723C77.674 317.287 76.9916 317.569 76.1981 317.569C75.4045 317.569 74.7222 317.287 74.1511 316.723C73.4169 316.004 73.0497 314.995 73.0497 313.697C73.0497 312.392 73.4169 311.38 74.1511 310.66C74.7222 310.097 75.4045 309.815 76.1981 309.815C76.9916 309.815 77.674 310.097 78.245 310.66C78.9793 311.38 79.3464 312.392 79.3464 313.697ZM83.4582 311.773C83.2876 311.617 83.0911 311.539 82.8686 311.539C82.6461 311.539 82.4496 311.617 82.279 311.773C82.0862 311.936 81.9304 312.21 81.8117 312.596C81.6931 312.974 81.6337 313.345 81.6337 313.708C81.6337 314.042 81.6894 314.406 81.8006 314.799C81.9193 315.184 82.0787 315.466 82.279 315.644C82.4496 315.8 82.6461 315.878 82.8686 315.878C83.0911 315.878 83.2876 315.8 83.4582 315.644C83.651 315.474 83.8068 315.199 83.9255 314.821C84.0441 314.435 84.1035 314.068 84.1035 313.72C84.1035 313.371 84.0404 313 83.9143 312.607C83.7957 312.214 83.6436 311.936 83.4582 311.773ZM86.0169 313.697C86.0169 314.995 85.6498 316.004 84.9156 316.723C84.3445 317.287 83.6622 317.569 82.8686 317.569C82.075 317.569 81.3927 317.287 80.8216 316.723C80.0874 316.004 79.7203 314.995 79.7203 313.697C79.7203 312.392 80.0874 311.38 80.8216 310.66C81.3927 310.097 82.075 309.815 82.8686 309.815C83.6622 309.815 84.3445 310.097 84.9156 310.66C85.6498 311.38 86.0169 312.392 86.0169 313.697ZM86.5688 314.287V312.952H88.2598V311.25H89.706V312.952H91.397V314.287H89.706V315.989H88.2598V314.287H86.5688Z" fill="white"/>
<path d="M44.1559 349.142V350.777H41.8642V352.012H44.0336V353.647H41.8642V354.926H44.1559V356.562H39.9396V349.142H44.1559ZM44.6038 356.562L47.5074 352.601L45.1267 349.142H47.5074L48.6087 351.066L49.7546 349.142H52.1242L49.7101 352.601L52.5135 356.562H50.1773L48.5976 354.148L46.9289 356.562H44.6038ZM58.0663 354.081V356.362C57.3914 356.606 56.8351 356.729 56.3976 356.729C55.2406 356.729 54.2838 356.358 53.5274 355.616C53.1714 355.26 52.8932 354.845 52.693 354.37C52.5002 353.888 52.4038 353.402 52.4038 352.913C52.4038 352.401 52.5039 351.904 52.7041 351.422C52.9118 350.94 53.1862 350.525 53.5274 350.176C54.2838 349.405 55.2183 349.019 56.3308 349.019C56.8648 349.019 57.4433 349.145 58.0663 349.397V351.7C57.6287 351.159 57.0688 350.888 56.3864 350.888C55.8599 350.888 55.4149 351.051 55.0515 351.378C54.6213 351.778 54.4062 352.286 54.4062 352.902C54.4062 353.488 54.6065 353.97 55.007 354.348C55.3704 354.689 55.8302 354.86 56.3864 354.86C57.0317 354.86 57.5916 354.6 58.0663 354.081ZM59.2885 349.142H61.2131V354.926H63.5271V356.562H59.2885V349.142ZM64.1013 349.142H66.0259V353.536C66.0259 354.055 66.152 354.437 66.4041 354.682C66.6563 354.919 66.9604 355.038 67.3164 355.038C67.6724 355.038 67.969 354.93 68.2064 354.715C68.3399 354.596 68.44 354.448 68.5067 354.27C68.5809 354.085 68.6217 353.94 68.6291 353.836C68.6365 353.725 68.6402 353.569 68.6402 353.369V349.142H70.5648V353.402C70.5648 353.729 70.5537 353.999 70.5314 354.214C70.5092 354.422 70.4313 354.678 70.2978 354.982C70.1717 355.279 69.9826 355.553 69.7305 355.805C69.1223 356.421 68.3065 356.729 67.283 356.729C66.2002 356.729 65.3807 356.432 64.8244 355.839C64.3423 355.312 64.1013 354.5 64.1013 353.402V349.142ZM71.7852 355.894L72.6085 354.337C73.1425 354.841 73.7098 355.093 74.3106 355.093C74.6517 355.093 74.9002 355.008 75.0559 354.837C75.182 354.711 75.2451 354.556 75.2451 354.37C75.2451 354.192 75.1746 354.044 75.0337 353.925C74.915 353.821 74.5961 353.692 74.077 353.536L73.5763 353.38C73.0794 353.224 72.7234 353.024 72.5084 352.779C72.2265 352.475 72.0856 352.038 72.0856 351.467C72.0856 350.725 72.3118 350.128 72.7642 349.676C73.2315 349.208 73.8656 348.975 74.6666 348.975C75.4305 348.975 76.1944 349.175 76.9583 349.575L76.1907 351.077C75.7679 350.743 75.3452 350.577 74.9224 350.577C74.6554 350.577 74.4441 350.651 74.2883 350.799C74.1622 350.925 74.0992 351.059 74.0992 351.2C74.0992 351.333 74.1326 351.444 74.1993 351.533C74.3032 351.659 74.5182 351.771 74.8446 351.867L75.4342 352.045C76.0572 352.238 76.5059 352.483 76.7803 352.779C77.0992 353.12 77.2587 353.562 77.2587 354.103C77.2587 354.882 77.025 355.505 76.5578 355.972C76.0535 356.476 75.3229 356.729 74.3662 356.729C73.8396 356.729 73.3538 356.647 72.9089 356.484C72.5306 356.35 72.1561 356.154 71.7852 355.894ZM78.4745 349.142H80.3991V356.562H78.4745V349.142ZM81.1831 349.142H83.2857L85.0657 353.658L86.8679 349.142H88.9593L85.7999 356.562H84.298L81.1831 349.142ZM93.9568 349.142V350.777H91.6651V352.012H93.8344V353.647H91.6651V354.926H93.9568V356.562H89.7405V349.142H93.9568ZM100.472 356.562H97.7799V349.142H100.305C101.566 349.142 102.549 349.483 103.253 350.165C103.943 350.825 104.288 351.726 104.288 352.868C104.288 353.936 103.965 354.793 103.32 355.438C102.994 355.764 102.586 356.035 102.096 356.25C101.607 356.458 101.065 356.562 100.472 356.562ZM99.7045 350.777V354.926H100.094C100.813 354.926 101.355 354.748 101.718 354.392C102.096 354.029 102.285 353.521 102.285 352.868C102.285 352.149 102.093 351.608 101.707 351.244C101.373 350.933 100.861 350.777 100.172 350.777H99.7045ZM109.731 349.142V350.777H107.44V352.012H109.609V353.647H107.44V354.926H109.731V356.562H105.515V349.142H109.731ZM115.942 356.562L115.486 355.316H112.794L112.293 356.562H110.257L113.105 349.142H115.208L118 356.562H115.942ZM113.328 353.847H114.974L114.14 351.444L113.328 353.847ZM118.856 349.142H120.781V354.926H123.095V356.562H118.856V349.142ZM123.466 355.894L124.289 354.337C124.823 354.841 125.39 355.093 125.991 355.093C126.332 355.093 126.581 355.008 126.736 354.837C126.862 354.711 126.925 354.556 126.925 354.37C126.925 354.192 126.855 354.044 126.714 353.925C126.595 353.821 126.276 353.692 125.757 353.536L125.257 353.38C124.76 353.224 124.404 353.024 124.189 352.779C123.907 352.475 123.766 352.038 123.766 351.467C123.766 350.725 123.992 350.128 124.445 349.676C124.912 349.208 125.546 348.975 126.347 348.975C127.111 348.975 127.875 349.175 128.639 349.575L127.871 351.077C127.448 350.743 127.026 350.577 126.603 350.577C126.336 350.577 126.124 350.651 125.969 350.799C125.843 350.925 125.78 351.059 125.78 351.2C125.78 351.333 125.813 351.444 125.88 351.533C125.984 351.659 126.199 351.771 126.525 351.867L127.115 352.045C127.738 352.238 128.186 352.483 128.461 352.779C128.78 353.12 128.939 353.562 128.939 354.103C128.939 354.882 128.705 355.505 128.238 355.972C127.734 356.476 127.003 356.729 126.047 356.729C125.52 356.729 125.034 356.647 124.589 356.484C124.211 356.35 123.836 356.154 123.466 355.894Z" fill="white"/>
<path d="M191.083 18.758H193.941C194.688 18.758 195.264 18.9661 195.666 19.3824C196.068 19.7917 196.269 20.3208 196.269 20.97C196.269 21.5909 196.082 22.0813 195.708 22.4411C195.447 22.6881 195.122 22.8504 194.734 22.928L196.946 25.8174H194.671L192.914 23.1079V25.8174H191.083V18.758ZM192.914 20.1762V21.9225H193.263C193.658 21.9225 193.955 21.8273 194.152 21.6368C194.307 21.4815 194.385 21.284 194.385 21.0441C194.385 20.7971 194.304 20.5996 194.142 20.4514C193.958 20.2679 193.665 20.1762 193.263 20.1762H192.914ZM201.73 18.758V20.3138H199.549V21.4886H201.613V23.0444H199.549V24.2616H201.73V25.8174H197.718V18.758H201.73ZM202.156 18.758H204.156L205.85 23.055L207.564 18.758H209.554L206.548 25.8174H205.119L202.156 18.758ZM214.308 18.758V20.3138H212.128V21.4886H214.192V23.0444H212.128V24.2616H214.308V25.8174H210.297V18.758H214.308ZM217.306 25.8174H215.475V18.758H217.306L220.683 23.0762V18.758H222.514V25.8174H220.683L217.306 21.4992V25.8174ZM223.992 18.758H225.823V22.9386C225.823 23.4325 225.943 23.7959 226.183 24.0287C226.423 24.2545 226.712 24.3674 227.051 24.3674C227.389 24.3674 227.672 24.2651 227.897 24.0605C228.024 23.9476 228.12 23.8065 228.183 23.6371C228.254 23.4607 228.293 23.3231 228.3 23.2243C228.307 23.1185 228.31 22.9703 228.31 22.7798V18.758H230.141V22.8116C230.141 23.122 230.131 23.3796 230.109 23.5842C230.088 23.7818 230.014 24.0252 229.887 24.3145C229.767 24.5967 229.587 24.8578 229.347 25.0977C228.769 25.6833 227.993 25.9761 227.019 25.9761C225.989 25.9761 225.209 25.6939 224.68 25.1294C224.221 24.6285 223.992 23.8558 223.992 22.8116V18.758ZM235.631 18.758V20.3138H233.451V21.4886H235.515V23.0444H233.451V24.2616H235.631V25.8174H231.62V18.758H235.631ZM238.951 25.1824L239.734 23.7006C240.242 24.1804 240.782 24.4203 241.353 24.4203C241.678 24.4203 241.914 24.3392 242.062 24.1769C242.182 24.0569 242.242 23.9088 242.242 23.7324C242.242 23.563 242.175 23.4219 242.041 23.309C241.928 23.2102 241.625 23.0868 241.131 22.9386L240.655 22.7904C240.182 22.6422 239.843 22.4517 239.639 22.2189C239.371 21.9296 239.237 21.5133 239.237 20.97C239.237 20.2644 239.452 19.6964 239.882 19.266C240.327 18.8215 240.93 18.5992 241.692 18.5992C242.419 18.5992 243.145 18.7897 243.872 19.1707L243.142 20.5996C242.74 20.282 242.338 20.1233 241.935 20.1233C241.681 20.1233 241.48 20.1938 241.332 20.335C241.212 20.4549 241.152 20.5819 241.152 20.716C241.152 20.843 241.184 20.9488 241.247 21.0335C241.346 21.1534 241.551 21.2593 241.861 21.351L242.422 21.5203C243.015 21.7038 243.442 21.9366 243.703 22.2189C244.006 22.5435 244.158 22.9633 244.158 23.4784C244.158 24.2192 243.936 24.8119 243.491 25.2564C243.011 25.7362 242.316 25.9761 241.406 25.9761C240.905 25.9761 240.443 25.8985 240.02 25.7433C239.66 25.6163 239.304 25.4293 238.951 25.1824ZM247.146 18.758V21.3933H249.792V18.758H251.633V25.8174H249.792V22.9597H247.146V25.8174H245.315V18.758H247.146ZM257.86 25.8174L257.426 24.632H254.865L254.388 25.8174H252.451L255.161 18.758H257.161L259.818 25.8174H257.86ZM255.373 23.2349H256.939L256.145 20.9488L255.373 23.2349ZM260.632 18.758H263.49C264.238 18.758 264.813 18.9661 265.215 19.3824C265.617 19.7917 265.818 20.3208 265.818 20.97C265.818 21.5909 265.631 22.0813 265.257 22.4411C264.996 22.6881 264.672 22.8504 264.284 22.928L266.496 25.8174H264.22L262.463 23.1079V25.8174H260.632V18.758ZM262.463 20.1762V21.9225H262.813C263.208 21.9225 263.504 21.8273 263.702 21.6368C263.857 21.4815 263.934 21.284 263.934 21.0441C263.934 20.7971 263.853 20.5996 263.691 20.4514C263.508 20.2679 263.215 20.1762 262.813 20.1762H262.463ZM271.279 18.758V20.3138H269.099V21.4886H271.163V23.0444H269.099V24.2616H271.279V25.8174H267.268V18.758H271.279ZM271.61 27.3944L272.933 24.0499H274.521L272.7 27.3944H271.61ZM280.843 22.1448C280.223 22.1448 279.732 21.9578 279.372 21.5839C279.076 21.2663 278.928 20.8853 278.928 20.4408C278.928 19.9539 279.072 19.5553 279.362 19.2448C279.693 18.8709 280.187 18.6839 280.843 18.6839C281.486 18.6839 281.986 18.8709 282.346 19.2448C282.643 19.5553 282.791 19.9434 282.791 20.409C282.791 20.8747 282.639 21.2663 282.336 21.5839C281.976 21.9578 281.478 22.1448 280.843 22.1448ZM280.812 25.8174L284.897 18.758H285.818L281.722 25.8174H280.812ZM280.865 19.6153C280.625 19.6153 280.431 19.6964 280.282 19.8587C280.141 20.0139 280.071 20.1974 280.071 20.409C280.071 20.6489 280.163 20.85 280.346 21.0123C280.487 21.1393 280.66 21.2028 280.865 21.2028C281.076 21.2028 281.263 21.1287 281.426 20.9806C281.581 20.8253 281.658 20.6348 281.658 20.409C281.658 20.1762 281.574 19.9786 281.404 19.8164C281.263 19.6823 281.083 19.6153 280.865 19.6153ZM285.775 23.3725C285.536 23.3725 285.342 23.4537 285.193 23.6159C285.052 23.7712 284.982 23.9546 284.982 24.1663C284.982 24.4062 285.073 24.6073 285.257 24.7696C285.398 24.8966 285.571 24.9601 285.775 24.9601C285.987 24.9601 286.174 24.886 286.336 24.7378C286.492 24.5826 286.569 24.3921 286.569 24.1663C286.569 23.9264 286.485 23.7288 286.315 23.5736C286.174 23.4396 285.994 23.3725 285.775 23.3725ZM285.754 25.9021C285.133 25.9021 284.643 25.7151 284.283 25.3411C283.987 25.0236 283.839 24.6426 283.839 24.1981C283.839 23.7112 283.983 23.3125 284.273 23.0021C284.604 22.6281 285.098 22.4411 285.754 22.4411C286.396 22.4411 286.897 22.6281 287.257 23.0021C287.554 23.3125 287.702 23.7006 287.702 24.1663C287.702 24.632 287.55 25.0236 287.247 25.3411C286.887 25.7151 286.389 25.9021 285.754 25.9021ZM194.93 41.1721L193.734 41.8071C193.296 41.1721 192.951 40.3819 192.697 39.4364C192.492 38.6461 192.39 37.8206 192.39 36.9597C192.39 35.9719 192.52 35.0476 192.781 34.1868C192.993 33.4953 193.31 32.8003 193.734 32.1018L194.93 32.7368C194.57 33.393 194.309 34.0316 194.147 34.6525C193.949 35.3933 193.85 36.1448 193.85 36.9068C193.85 37.6265 193.935 38.3568 194.104 39.0977C194.267 39.8103 194.542 40.5018 194.93 41.1721ZM198.316 39.1824L199.099 37.7006C199.607 38.1804 200.147 38.4203 200.718 38.4203C201.043 38.4203 201.279 38.3392 201.427 38.1769C201.547 38.0569 201.607 37.9088 201.607 37.7324C201.607 37.563 201.54 37.4219 201.406 37.309C201.293 37.2102 200.99 37.0868 200.496 36.9386L200.02 36.7904C199.547 36.6422 199.208 36.4517 199.004 36.2189C198.736 35.9296 198.601 35.5133 198.601 34.97C198.601 34.2644 198.817 33.6964 199.247 33.266C199.692 32.8215 200.295 32.5992 201.057 32.5992C201.784 32.5992 202.51 32.7897 203.237 33.1707L202.507 34.5996C202.105 34.282 201.703 34.1233 201.3 34.1233C201.046 34.1233 200.845 34.1938 200.697 34.335C200.577 34.4549 200.517 34.5819 200.517 34.716C200.517 34.843 200.549 34.9488 200.612 35.0335C200.711 35.1534 200.916 35.2593 201.226 35.351L201.787 35.5203C202.38 35.7038 202.807 35.9366 203.068 36.2189C203.371 36.5435 203.523 36.9633 203.523 37.4784C203.523 38.2192 203.301 38.8119 202.856 39.2564C202.376 39.7362 201.681 39.9761 200.771 39.9761C200.27 39.9761 199.808 39.8985 199.385 39.7433C199.025 39.6163 198.668 39.4293 198.316 39.1824ZM207.664 37.4784H206.511V39.8174H204.68V32.758H207.601C208.356 32.758 208.952 32.9696 209.389 33.393C209.827 33.8164 210.046 34.3879 210.046 35.1076C210.046 35.8696 209.837 36.4553 209.421 36.8645C209.005 37.2737 208.419 37.4784 207.664 37.4784ZM206.511 34.2397V35.9966H207.124C207.477 35.9966 207.735 35.9225 207.897 35.7744C208.052 35.6403 208.13 35.4251 208.13 35.1287C208.13 34.8465 208.059 34.6348 207.918 34.4937C207.756 34.3244 207.495 34.2397 207.135 34.2397H206.511ZM218.488 36.293C218.488 37.3372 218.117 38.2157 217.376 38.9283C216.643 39.6269 215.715 39.9761 214.593 39.9761C213.471 39.9761 212.543 39.6269 211.809 38.9283C211.068 38.2157 210.698 37.3372 210.698 36.293C210.698 35.8061 210.79 35.3298 210.973 34.8642C211.164 34.3985 211.442 33.9928 211.809 33.647C212.543 32.9485 213.471 32.5992 214.593 32.5992C215.715 32.5992 216.643 32.9485 217.376 33.647C217.743 33.9928 218.018 34.3985 218.202 34.8642C218.392 35.3298 218.488 35.8061 218.488 36.293ZM214.593 34.3773C214.014 34.3773 213.538 34.5643 213.164 34.9382C212.79 35.3051 212.603 35.7673 212.603 36.3247C212.603 36.8398 212.79 37.2773 213.164 37.6371C213.552 38.0111 214.028 38.1981 214.593 38.1981C215.171 38.1981 215.644 38.0146 216.011 37.6477C216.392 37.2667 216.583 36.8151 216.583 36.293C216.583 35.7567 216.392 35.3051 216.011 34.9382C215.616 34.5643 215.143 34.3773 214.593 34.3773ZM219.656 32.758H222.514C223.262 32.758 223.837 32.9661 224.239 33.3824C224.641 33.7917 224.842 34.3208 224.842 34.97C224.842 35.5909 224.655 36.0813 224.281 36.4411C224.02 36.6881 223.696 36.8504 223.308 36.928L225.52 39.8174H223.244L221.487 37.1079V39.8174H219.656V32.758ZM221.487 34.1762V35.9225H221.836C222.232 35.9225 222.528 35.8273 222.725 35.6368C222.881 35.4815 222.958 35.284 222.958 35.0441C222.958 34.7971 222.877 34.5996 222.715 34.4514C222.531 34.2679 222.239 34.1762 221.836 34.1762H221.487ZM230.193 34.3138H228.69V39.8174H226.859V34.3138H225.356V32.758H230.193V34.3138ZM233.083 36.8539V35.5839H234.692V33.9645H236.068V35.5839H237.677V36.8539H236.068V38.4732H234.692V36.8539H233.083ZM246.307 37.4572V39.6269C245.665 39.8597 245.136 39.9761 244.719 39.9761C243.619 39.9761 242.708 39.6233 241.989 38.9178C241.65 38.5791 241.385 38.1839 241.195 37.7324C241.011 37.2737 240.92 36.8116 240.92 36.3459C240.92 35.859 241.015 35.3863 241.205 34.9277C241.403 34.469 241.664 34.0739 241.989 33.7423C242.708 33.0085 243.597 32.6415 244.656 32.6415C245.164 32.6415 245.714 32.7615 246.307 33.0014V35.1923C245.891 34.6772 245.358 34.4196 244.709 34.4196C244.208 34.4196 243.784 34.5749 243.439 34.8853C243.029 35.2663 242.825 35.7497 242.825 36.3353C242.825 36.8927 243.015 37.3514 243.396 37.7112C243.742 38.0358 244.18 38.1981 244.709 38.1981C245.323 38.1981 245.855 37.9511 246.307 37.4572ZM252.211 39.8174L251.777 38.632H249.216L248.74 39.8174H246.803L249.512 32.758H251.513L254.169 39.8174H252.211ZM249.724 37.2349H251.29L250.497 34.9488L249.724 37.2349ZM254.398 39.1824L255.181 37.7006C255.689 38.1804 256.229 38.4203 256.8 38.4203C257.125 38.4203 257.361 38.3392 257.509 38.1769C257.629 38.0569 257.689 37.9088 257.689 37.7324C257.689 37.563 257.622 37.4219 257.488 37.309C257.375 37.2102 257.072 37.0868 256.578 36.9386L256.102 36.7904C255.629 36.6422 255.29 36.4517 255.085 36.2189C254.817 35.9296 254.683 35.5133 254.683 34.97C254.683 34.2644 254.899 33.6964 255.329 33.266C255.773 32.8215 256.377 32.5992 257.139 32.5992C257.866 32.5992 258.592 32.7897 259.319 33.1707L258.589 34.5996C258.187 34.282 257.784 34.1233 257.382 34.1233C257.128 34.1233 256.927 34.1938 256.779 34.335C256.659 34.4549 256.599 34.5819 256.599 34.716C256.599 34.843 256.631 34.9488 256.694 35.0335C256.793 35.1534 256.998 35.2593 257.308 35.351L257.869 35.5203C258.462 35.7038 258.889 35.9366 259.15 36.2189C259.453 36.5435 259.605 36.9633 259.605 37.4784C259.605 38.2192 259.383 38.8119 258.938 39.2564C258.458 39.7362 257.763 39.9761 256.853 39.9761C256.352 39.9761 255.89 39.8985 255.467 39.7433C255.107 39.6163 254.75 39.4293 254.398 39.1824ZM260.761 32.758H262.592V39.8174H260.761V32.758ZM265.91 39.8174H264.079V32.758H265.91L269.287 37.0762V32.758H271.118V39.8174H269.287L265.91 35.4992V39.8174ZM280.068 36.293C280.068 37.3372 279.698 38.2157 278.957 38.9283C278.223 39.6269 277.295 39.9761 276.173 39.9761C275.051 39.9761 274.124 39.6269 273.39 38.9283C272.649 38.2157 272.278 37.3372 272.278 36.293C272.278 35.8061 272.37 35.3298 272.554 34.8642C272.744 34.3985 273.023 33.9928 273.39 33.647C274.124 32.9485 275.051 32.5992 276.173 32.5992C277.295 32.5992 278.223 32.9485 278.957 33.647C279.324 33.9928 279.599 34.3985 279.782 34.8642C279.973 35.3298 280.068 35.8061 280.068 36.293ZM276.173 34.3773C275.595 34.3773 275.118 34.5643 274.744 34.9382C274.371 35.3051 274.184 35.7673 274.184 36.3247C274.184 36.8398 274.371 37.2773 274.744 37.6371C275.133 38.0111 275.609 38.1981 276.173 38.1981C276.752 38.1981 277.225 38.0146 277.592 37.6477C277.973 37.2667 278.163 36.8151 278.163 36.293C278.163 35.7567 277.973 35.3051 277.592 34.9382C277.196 34.5643 276.724 34.3773 276.173 34.3773ZM284.659 41.8071L283.463 41.1721C283.852 40.5018 284.127 39.8103 284.289 39.0977C284.458 38.3568 284.543 37.6265 284.543 36.9068C284.543 36.1448 284.444 35.3933 284.247 34.6525C284.084 34.0316 283.823 33.393 283.463 32.7368L284.659 32.1018C285.083 32.8003 285.4 33.4953 285.612 34.1868C285.873 35.0405 286.004 35.9684 286.004 36.9703C286.004 37.8241 285.901 38.6461 285.697 39.4364C285.443 40.3819 285.097 41.1721 284.659 41.8071Z" fill="white"/>
<defs>
<filter id="filter0_b_1_932" x="-1.62004" y="-1.62004" width="314.404" height="376.591" filterUnits="userSpaceOnUse" color-interpolation-filters="sRGB">
<feFlood flood-opacity="0" result="BackgroundImageFix"/>
<feGaussianBlur in="BackgroundImageFix" stdDeviation="0.81002"/>
<feComposite in2="SourceAlpha" operator="in" result="effect1_backgroundBlur_1_932"/>
<feBlend mode="normal" in="SourceGraphic" in2="effect1_backgroundBlur_1_932" result="shape"/>
</filter>
<filter id="filter1_b_1_932" x="-1.62004" y="-1.09074" width="314.404" height="57.8995" filterUnits="userSpaceOnUse" color-interpolation-filters="sRGB">
<feFlood flood-opacity="0" result="BackgroundImageFix"/>
<feGaussianBlur in="BackgroundImageFix" stdDeviation="0.81002"/>
<feComposite in2="SourceAlpha" operator="in" result="effect1_backgroundBlur_1_932"/>
<feBlend mode="normal" in="SourceGraphic" in2="effect1_backgroundBlur_1_932" result="shape"/>
</filter>
<filter id="filter2_b_1_932" x="-1.62004" y="132.265" width="314.404" height="43.0765" filterUnits="userSpaceOnUse" color-interpolation-filters="sRGB">
<feFlood flood-opacity="0" result="BackgroundImageFix"/>
<feGaussianBlur in="BackgroundImageFix" stdDeviation="0.81002"/>
<feComposite in2="SourceAlpha" operator="in" result="effect1_backgroundBlur_1_932"/>
<feBlend mode="normal" in="SourceGraphic" in2="effect1_backgroundBlur_1_932" result="shape"/>
</filter>
<filter id="filter3_b_1_932" x="-1.62004" y="53.4158" width="314.404" height="43.0765" filterUnits="userSpaceOnUse" color-interpolation-filters="sRGB">
<feFlood flood-opacity="0" result="BackgroundImageFix"/>
<feGaussianBlur in="BackgroundImageFix" stdDeviation="0.81002"/>
<feComposite in2="SourceAlpha" operator="in" result="effect1_backgroundBlur_1_932"/>
<feBlend mode="normal" in="SourceGraphic" in2="effect1_backgroundBlur_1_932" result="shape"/>
</filter>
<filter id="filter4_b_1_932" x="-1.62004" y="211.644" width="314.404" height="43.0765" filterUnits="userSpaceOnUse" color-interpolation-filters="sRGB">
<feFlood flood-opacity="0" result="BackgroundImageFix"/>
<feGaussianBlur in="BackgroundImageFix" stdDeviation="0.81002"/>
<feComposite in2="SourceAlpha" operator="in" result="effect1_backgroundBlur_1_932"/>
<feBlend mode="normal" in="SourceGraphic" in2="effect1_backgroundBlur_1_932" result="shape"/>
</filter>
<filter id="filter5_b_1_932" x="-1.62004" y="291.023" width="314.404" height="43.0765" filterUnits="userSpaceOnUse" color-interpolation-filters="sRGB">
<feFlood flood-opacity="0" result="BackgroundImageFix"/>
<feGaussianBlur in="BackgroundImageFix" stdDeviation="0.81002"/>
<feComposite in2="SourceAlpha" operator="in" result="effect1_backgroundBlur_1_932"/>
<feBlend mode="normal" in="SourceGraphic" in2="effect1_backgroundBlur_1_932" result="shape"/>
</filter>
<filter id="filter6_b_1_932" x="-1.62004" y="330.712" width="314.405" height="44.5169" filterUnits="userSpaceOnUse" color-interpolation-filters="sRGB">
<feFlood flood-opacity="0" result="BackgroundImageFix"/>
<feGaussianBlur in="BackgroundImageFix" stdDeviation="0.81002"/>
<feComposite in2="SourceAlpha" operator="in" result="effect1_backgroundBlur_1_932"/>
<feBlend mode="normal" in="SourceGraphic" in2="effect1_backgroundBlur_1_932" result="shape"/>
</filter>
<filter id="filter7_b_1_932" x="-1.62004" y="92.8758" width="314.404" height="43.0765" filterUnits="userSpaceOnUse" color-interpolation-filters="sRGB">
<feFlood flood-opacity="0" result="BackgroundImageFix"/>
<feGaussianBlur in="BackgroundImageFix" stdDeviation="0.81002"/>
<feComposite in2="SourceAlpha" operator="in" result="effect1_backgroundBlur_1_932"/>
<feBlend mode="normal" in="SourceGraphic" in2="effect1_backgroundBlur_1_932" result="shape"/>
</filter>
<filter id="filter8_b_1_932" x="-1.62004" y="171.955" width="314.404" height="43.0765" filterUnits="userSpaceOnUse" color-interpolation-filters="sRGB">
<feFlood flood-opacity="0" result="BackgroundImageFix"/>
<feGaussianBlur in="BackgroundImageFix" stdDeviation="0.81002"/>
<feComposite in2="SourceAlpha" operator="in" result="effect1_backgroundBlur_1_932"/>
<feBlend mode="normal" in="SourceGraphic" in2="effect1_backgroundBlur_1_932" result="shape"/>
</filter>
<filter id="filter9_b_1_932" x="-1.62004" y="251.333" width="314.404" height="43.0765" filterUnits="userSpaceOnUse" color-interpolation-filters="sRGB">
<feFlood flood-opacity="0" result="BackgroundImageFix"/>
<feGaussianBlur in="BackgroundImageFix" stdDeviation="0.81002"/>
<feComposite in2="SourceAlpha" operator="in" result="effect1_backgroundBlur_1_932"/>
<feBlend mode="normal" in="SourceGraphic" in2="effect1_backgroundBlur_1_932" result="shape"/>
</filter>
<linearGradient id="paint0_linear_1_932" x1="288.674" y1="7.8633e-06" x2="-88.4171" y2="147.862" gradientUnits="userSpaceOnUse">
<stop stop-color="#120039"/>
<stop offset="0.602657" stop-color="#0042AC"/>
<stop offset="1" stop-color="#0050D0"/>
</linearGradient>
<linearGradient id="paint1_linear_1_932" x1="8.99632" y1="0.529267" x2="311.164" y2="55.036" gradientUnits="userSpaceOnUse">
<stop stop-color="#0150CE"/>
<stop offset="1" stop-color="#092376"/>
</linearGradient>
<linearGradient id="paint2_linear_1_932" x1="6.6082e-05" y1="144.007" x2="311.861" y2="158.102" gradientUnits="userSpaceOnUse">
<stop stop-color="#013587"/>
<stop offset="1" stop-color="#003E9E"/>
</linearGradient>
<linearGradient id="paint3_linear_1_932" x1="6.6082e-05" y1="65.1571" x2="311.861" y2="79.2523" gradientUnits="userSpaceOnUse">
<stop stop-color="#013587"/>
<stop offset="1" stop-color="#003E9E"/>
</linearGradient>
<linearGradient id="paint4_linear_1_932" x1="6.6082e-05" y1="223.385" x2="311.861" y2="237.481" gradientUnits="userSpaceOnUse">
<stop stop-color="#013587"/>
<stop offset="1" stop-color="#003E9E"/>
</linearGradient>
<linearGradient id="paint5_linear_1_932" x1="6.6082e-05" y1="302.764" x2="311.861" y2="316.859" gradientUnits="userSpaceOnUse">
<stop stop-color="#013587"/>
<stop offset="1" stop-color="#003E9E"/>
</linearGradient>
<linearGradient id="paint6_linear_1_932" x1="8.99632" y1="332.332" x2="304.156" y2="402.836" gradientUnits="userSpaceOnUse">
<stop stop-color="#0150CE"/>
<stop offset="1" stop-color="#092376"/>
</linearGradient>
</defs>
</svg>
